<?xml version="1.0" encoding="UTF-8" standalone="no"?>
<svg
   xmlns:dc="http://purl.org/dc/elements/1.1/"
   xmlns:cc="http://creativecommons.org/ns#"
   xmlns:rdf="http://www.w3.org/1999/02/22-rdf-syntax-ns#"
   xmlns:svg="http://www.w3.org/2000/svg"
   xmlns="http://www.w3.org/2000/svg"
   xmlns:sodipodi="http://sodipodi.sourceforge.net/DTD/sodipodi-0.dtd"
   xmlns:inkscape="http://www.inkscape.org/namespaces/inkscape"
   inkscape:export-ydpi="304.79999"
   inkscape:export-xdpi="304.79999"
   inkscape:export-filename="/Users/luis/Documents/Eucalyptus/Coriander/Visuals.jl/Eucalyptus/Leaf_001/LAURA.png"
   version="1.2"
   width="100mm"
   height="100mm"
   viewBox="0 0 100 100"
   stroke="none"
   fill="#000000"
   stroke-width="0.3"
   font-size="3.88"
   id="svg1051"
   sodipodi:docname="LAURA.svg"
   inkscape:version="1.0 (4035a4f, 2020-05-01)">
  <metadata
     id="metadata1055">
    <rdf:RDF>
      <cc:Work
         rdf:about="">
        <dc:format>image/svg+xml</dc:format>
        <dc:type
           rdf:resource="http://purl.org/dc/dcmitype/StillImage" />
        <dc:title />
      </cc:Work>
    </rdf:RDF>
  </metadata>
  <sodipodi:namedview
     inkscape:document-rotation="0"
     pagecolor="#ffffff"
     bordercolor="#666666"
     borderopacity="1"
     objecttolerance="10"
     gridtolerance="10"
     guidetolerance="10"
     inkscape:pageopacity="0"
     inkscape:pageshadow="2"
     inkscape:window-width="640"
     inkscape:window-height="480"
     id="namedview1053"
     showgrid="false"
     inkscape:snap-bbox="true"
     inkscape:bbox-nodes="true"
     inkscape:snap-text-baseline="true"
     inkscape:zoom="4.4792015"
     inkscape:cx="245.16897"
     inkscape:cy="349.80128"
     inkscape:current-layer="layer2" />
  <defs
     id="defs966">
    <marker
       id="arrow"
       markerWidth="15"
       markerHeight="7"
       refX="5"
       refY="3.5"
       orient="auto"
       markerUnits="strokeWidth">
      <path
         d="M0,0 L15,3.5 L0,7 z"
         stroke="context-stroke"
         fill="context-stroke"
         id="path963" />
    </marker>
  </defs>
  <g
     inkscape:groupmode="layer"
     id="layer1"
     inkscape:label="composition"
     sodipodi:insensitive="true">
    <g
       fill="#e2ca76"
       id="img-c512f12b-1">
      <g
         transform="translate(50,50)"
         id="g970">
        <path
           d="M -50,-50 H 50 V 50 H -50 Z"
           class="primitive"
           id="path968" />
      </g>
    </g>
    <g
       fill-opacity="0.2"
       fill="#e8899e"
       id="img-c512f12b-2">
      <g
         transform="translate(47.26,117.36)"
         id="g975">
        <path
           d="m -97.26,-167.36 v 192.5 l 0.97,-0.22 0.99,-0.18 1,-0.11 1.02,-0.06 1.04,-0.01 1.04,0.03 1.05,0.06 1.06,0.09 1.07,0.11 1.06,0.12 1.07,0.12 1.06,0.11 1.06,0.09 1.06,0.07 1.04,0.02 1.03,-0.01 1.02,-0.06 1.01,-0.11 0.99,-0.17 0.97,-0.23 0.96,-0.29 0.94,-0.35 0.93,-0.4 0.91,-0.46 0.9,-0.5 0.89,-0.55 0.88,-0.58 0.87,-0.61 0.87,-0.63 0.86,-0.64 0.87,-0.63 0.86,-0.63 0.88,-0.61 0.87,-0.58 0.89,-0.55 0.9,-0.5 0.92,-0.46 0.92,-0.4 0.95,-0.35 0.95,-0.29 0.98,-0.23 0.99,-0.17 1,-0.11 1.02,-0.06 1.03,-0.02 1.05,0.03 1.05,0.07 1.06,0.09 1.06,0.11 1.07,0.12 1.07,0.12 1.06,0.11 1.06,0.09 1.05,0.06 1.05,0.03 1.03,-0.01 1.02,-0.06 1,-0.12 0.99,-0.17 0.98,-0.23 0.95,-0.28 0.95,-0.35 0.92,-0.4 0.92,-0.46 0.9,-0.51 0.88,-0.54 0.88,-0.59 0.88,-0.6 0.86,-0.63 0.87,-0.64 0.86,-0.63 0.87,-0.63 0.87,-0.61 0.88,-0.58 0.89,-0.55 0.9,-0.5 0.91,-0.46 0.93,-0.41 0.94,-0.34 0.96,-0.29 0.97,-0.23 0.99,-0.17 1.01,-0.11 1.02,-0.07 1.03,-0.01 1.04,0.03 1.06,0.07 1.05,0.09 1.07,0.11 1.07,0.12 1.06,0.11 1.07,0.11 1.06,0.1 1.05,0.06 L -4.4,4.68 -3.36,4.67 -2.35,4.61 -1.34,4.49 -0.35,4.32 0.62,4.09 1.58,3.8 2.52,3.46 3.45,3.05 4.36,2.6 5.26,2.09 6.15,1.54 7.03,0.96 7.9,0.35 l 0.87,-0.62 0.87,-0.64 0.86,-0.64 0.87,-0.62 0.87,-0.61 0.88,-0.59 0.89,-0.54 0.9,-0.51 0.91,-0.45 0.93,-0.41 0.94,-0.35 0.96,-0.28 0.97,-0.23 0.99,-0.17 1.01,-0.12 1.01,-0.06 1.04,-0.01 1.04,0.03 1.05,0.06 1.06,0.09 1.07,0.11 1.06,0.12 1.07,0.12 1.07,0.11 1.06,0.09 1.05,0.07 1.04,0.03 1.03,-0.02 1.02,-0.06 1.01,-0.11 0.99,-0.17 0.97,-0.23 0.96,-0.29 0.94,-0.35 0.93,-0.4 0.91,-0.46 0.9,-0.5 0.89,-0.55 0.88,-0.58 0.87,-0.61 0.87,-0.63 0.86,-0.63 0.87,-0.64 0.86,-0.63 0.88,-0.61 0.88,-0.58 0.88,-0.55 0.9,-0.5 0.92,-0.46 0.92,-0.4 0.95,-0.35 0.95,-0.29 0.98,-0.23 0.99,-0.17 1,-0.11 1.02,-0.06 1.03,-0.01 1.05,0.03 1.05,0.06 1.06,0.09 1.06,0.11 1.07,0.12 1.07,0.12 1.06,0.11 1.06,0.09 1.05,0.06 1.05,0.03 1.03,-0.01 1.02,-0.06 1,-0.11 0.99,-0.17 0.98,-0.23 0.96,-0.29 0.94,-0.35 0.92,-0.4 0.92,-0.46 0.9,-0.5 0.89,-0.55 0.88,-0.58 0.87,-0.61 0.86,-0.63 0.87,-0.64 0.86,-0.63 0.87,-0.63 0.87,-0.61 0.88,-0.58 0.89,-0.55 0.9,-0.5 0.91,-0.46 0.93,-0.4 0.94,-0.35 0.96,-0.29 6.82,-140.74 z"
           class="primitive"
           id="path973" />
      </g>
    </g>
    <g
       fill-opacity="0.3"
       fill="#e7849b"
       id="img-c512f12b-3">
      <g
         transform="translate(47.26,97.55)"
         id="g980">
        <path
           d="m -97.26,-147.55 v 172.5 l 0.97,-0.23 0.99,-0.17 1,-0.12 1.02,-0.06 1.04,-0.01 1.04,0.03 1.05,0.06 1.06,0.1 1.07,0.1 1.06,0.12 1.07,0.12 1.06,0.11 1.06,0.09 1.06,0.07 1.04,0.03 1.03,-0.02 1.02,-0.06 1.01,-0.11 0.99,-0.17 0.97,-0.23 0.96,-0.29 0.94,-0.35 0.93,-0.4 0.91,-0.46 0.9,-0.5 0.89,-0.55 0.88,-0.58 0.87,-0.61 0.87,-0.63 0.86,-0.63 0.87,-0.64 0.86,-0.63 0.88,-0.61 0.87,-0.58 0.89,-0.54 0.9,-0.51 0.92,-0.46 0.92,-0.4 0.95,-0.35 0.95,-0.29 0.98,-0.22 0.99,-0.17 1,-0.12 1.02,-0.06 1.03,-0.01 1.05,0.03 1.05,0.06 1.06,0.09 1.06,0.11 1.07,0.12 1.07,0.12 1.06,0.11 1.06,0.09 1.05,0.07 1.05,0.02 1.03,-0.01 1.02,-0.06 1,-0.11 0.99,-0.17 0.98,-0.23 0.95,-0.29 0.95,-0.35 0.92,-0.4 0.92,-0.46 0.9,-0.5 0.88,-0.55 0.88,-0.58 0.88,-0.61 0.86,-0.63 0.87,-0.64 0.86,-0.63 0.87,-0.63 0.87,-0.61 0.88,-0.58 0.89,-0.55 0.9,-0.5 0.91,-0.46 0.93,-0.4 0.94,-0.35 0.96,-0.29 0.97,-0.23 0.99,-0.17 1.01,-0.11 1.02,-0.06 1.03,-0.02 1.04,0.03 1.06,0.07 1.05,0.09 1.07,0.11 1.07,0.12 1.06,0.12 1.07,0.11 1.06,0.09 1.05,0.06 L -4.4,4.48 -3.36,4.47 -2.35,4.41 -1.34,4.29 -0.35,4.12 0.62,3.9 1.58,3.61 2.52,3.26 3.45,2.86 4.36,2.4 5.26,1.89 6.15,1.35 7.03,0.76 7.9,0.16 l 0.87,-0.63 0.87,-0.64 0.86,-0.63 0.87,-0.63 0.87,-0.61 0.88,-0.58 0.89,-0.55 0.9,-0.5 0.91,-0.46 0.93,-0.41 0.94,-0.34 0.96,-0.29 0.97,-0.23 0.99,-0.17 1.01,-0.11 1.01,-0.07 1.04,-0.01 1.04,0.03 1.05,0.07 1.06,0.09 1.07,0.11 1.06,0.12 1.07,0.11 1.07,0.11 1.06,0.1 1.05,0.06 1.04,0.03 1.03,-0.01 1.02,-0.06 1.01,-0.12 0.99,-0.17 0.97,-0.23 0.96,-0.29 0.94,-0.34 0.93,-0.41 0.91,-0.45 0.9,-0.51 0.89,-0.55 0.88,-0.58 0.87,-0.61 0.87,-0.62 0.86,-0.64 0.87,-0.64 0.86,-0.62 0.88,-0.61 0.88,-0.59 0.88,-0.54 0.9,-0.51 0.92,-0.45 0.92,-0.41 0.95,-0.35 0.95,-0.28 0.98,-0.23 0.99,-0.17 1,-0.12 1.02,-0.06 1.03,-0.01 1.05,0.03 1.05,0.06 1.06,0.09 1.06,0.11 1.07,0.12 1.07,0.12 1.06,0.11 1.06,0.09 1.05,0.07 1.05,0.03 1.03,-0.02 1.02,-0.06 1,-0.11 0.99,-0.17 0.98,-0.23 0.96,-0.29 0.94,-0.35 0.92,-0.4 0.92,-0.46 0.9,-0.5 0.89,-0.55 0.88,-0.58 0.87,-0.61 0.86,-0.63 0.87,-0.63 0.86,-0.64 0.87,-0.63 0.87,-0.61 0.88,-0.58 0.89,-0.55 0.9,-0.5 0.91,-0.46 0.93,-0.4 0.94,-0.35 0.96,-0.29 6.82,-120.73 z"
           class="primitive"
           id="path978" />
      </g>
    </g>
    <g
       fill-opacity="0.3"
       fill="#e67e99"
       id="img-c512f12b-4">
      <g
         transform="translate(47.26,77.75)"
         id="g985">
        <path
           d="m -97.26,-127.75 v 152.5 l 0.97,-0.23 0.99,-0.17 1,-0.11 1.02,-0.06 1.04,-0.02 1.04,0.03 1.05,0.07 1.06,0.09 1.07,0.11 1.06,0.12 1.07,0.12 1.06,0.11 1.06,0.09 1.06,0.06 1.04,0.03 1.03,-0.01 1.02,-0.06 1.01,-0.12 0.99,-0.17 0.97,-0.23 0.96,-0.29 0.94,-0.34 0.93,-0.41 0.91,-0.45 0.9,-0.51 0.89,-0.54 0.88,-0.59 0.87,-0.61 0.87,-0.62 0.86,-0.64 0.87,-0.64 0.86,-0.62 0.88,-0.61 0.87,-0.58 0.89,-0.55 0.9,-0.51 0.92,-0.45 0.92,-0.41 0.95,-0.34 0.95,-0.29 0.98,-0.23 0.99,-0.17 1,-0.12 1.02,-0.06 1.03,-0.01 1.05,0.03 1.05,0.06 1.06,0.1 1.06,0.11 1.07,0.11 1.07,0.12 1.06,0.11 1.06,0.09 1.05,0.07 1.05,0.03 1.03,-0.02 1.02,-0.06 1,-0.11 0.99,-0.17 0.98,-0.23 0.95,-0.29 0.95,-0.35 0.92,-0.4 0.92,-0.46 0.9,-0.5 0.88,-0.55 0.88,-0.58 0.88,-0.61 0.86,-0.63 0.87,-0.63 0.86,-0.64 0.87,-0.63 0.87,-0.61 0.88,-0.58 0.89,-0.54 0.9,-0.51 0.91,-0.46 0.93,-0.4 0.94,-0.35 0.96,-0.29 0.97,-0.22 0.99,-0.17 1.01,-0.12 1.02,-0.06 1.03,-0.01 1.04,0.03 1.06,0.06 1.05,0.09 1.07,0.11 1.07,0.12 1.06,0.12 1.07,0.11 1.06,0.09 1.05,0.07 L -4.4,4.28 -3.36,4.27 -2.35,4.21 -1.34,4.1 -0.35,3.93 0.62,3.7 1.58,3.41 2.52,3.06 3.45,2.66 4.36,2.2 5.26,1.7 6.15,1.15 7.03,0.57 7.9,-0.04 l 0.87,-0.63 0.87,-0.64 0.86,-0.63 0.87,-0.63 0.87,-0.61 0.88,-0.58 0.89,-0.55 0.9,-0.5 0.91,-0.46 0.93,-0.4 0.94,-0.35 0.96,-0.29 0.97,-0.23 0.99,-0.17 1.01,-0.11 1.01,-0.06 1.04,-0.01 1.04,0.02 1.05,0.07 1.06,0.09 1.07,0.11 1.06,0.12 1.07,0.12 1.07,0.11 1.06,0.09 1.05,0.06 1.04,0.03 1.03,-0.01 1.02,-0.06 1.01,-0.12 0.99,-0.17 0.97,-0.22 0.96,-0.29 0.94,-0.35 0.93,-0.4 0.91,-0.46 0.9,-0.51 0.89,-0.54 0.88,-0.59 0.87,-0.6 0.87,-0.63 0.86,-0.64 0.87,-0.63 0.86,-0.63 0.88,-0.61 0.88,-0.58 0.88,-0.55 0.9,-0.5 0.92,-0.46 0.92,-0.4 0.95,-0.35 0.95,-0.29 0.98,-0.23 0.99,-0.17 1,-0.11 1.02,-0.06 1.03,-0.02 1.05,0.03 1.05,0.07 1.06,0.09 1.06,0.11 1.07,0.12 1.07,0.11 1.06,0.11 1.06,0.1 1.05,0.06 1.05,0.03 1.03,-0.01 1.02,-0.06 1,-0.12 0.99,-0.17 0.98,-0.23 0.96,-0.29 0.94,-0.34 0.92,-0.41 0.92,-0.45 0.9,-0.51 0.89,-0.55 0.88,-0.58 0.87,-0.61 0.86,-0.62 0.87,-0.64 0.86,-0.64 0.87,-0.62 0.87,-0.61 0.88,-0.59 0.89,-0.54 0.9,-0.51 0.91,-0.45 0.93,-0.41 0.94,-0.35 0.96,-0.28 6.82,-100.74 z"
           class="primitive"
           id="path983" />
      </g>
    </g>
    <g
       fill-opacity="0.3"
       fill="#e47896"
       id="img-c512f12b-5">
      <g
         transform="translate(47.26,57.95)"
         id="g990">
        <path
           d="m -97.26,-107.95 v 132.5 l 0.97,-0.23 0.99,-0.17 1,-0.11 1.02,-0.06 1.04,-0.01 1.04,0.03 1.05,0.06 1.06,0.09 1.07,0.11 1.06,0.12 1.07,0.12 1.06,0.11 1.06,0.09 1.06,0.06 1.04,0.03 1.03,-0.01 1.02,-0.06 1.01,-0.11 0.99,-0.17 0.97,-0.23 0.96,-0.29 0.94,-0.35 0.93,-0.4 0.91,-0.46 0.9,-0.5 0.89,-0.55 0.88,-0.58 0.87,-0.61 0.87,-0.63 0.86,-0.64 0.87,-0.63 0.86,-0.63 0.88,-0.61 0.87,-0.58 0.89,-0.55 0.9,-0.5 0.92,-0.46 0.92,-0.4 0.95,-0.35 0.95,-0.29 0.98,-0.23 0.99,-0.17 1,-0.11 1.02,-0.06 1.03,-0.02 1.05,0.03 1.05,0.07 1.06,0.09 1.06,0.11 1.07,0.12 1.07,0.12 1.06,0.11 1.06,0.09 1.05,0.06 1.05,0.03 1.03,-0.01 1.02,-0.06 1,-0.12 0.99,-0.17 0.98,-0.23 0.95,-0.28 0.95,-0.35 0.92,-0.41 0.92,-0.45 0.9,-0.51 0.88,-0.54 0.88,-0.59 0.88,-0.61 0.86,-0.62 0.87,-0.64 0.86,-0.64 0.87,-0.62 0.87,-0.61 0.88,-0.58 0.89,-0.55 0.9,-0.51 0.91,-0.45 0.93,-0.41 0.94,-0.34 0.96,-0.29 0.97,-0.23 0.99,-0.17 1.01,-0.12 1.02,-0.06 1.03,-0.01 1.04,0.03 1.06,0.06 1.05,0.1 1.07,0.11 1.07,0.11 1.06,0.12 1.07,0.11 1.06,0.09 1.05,0.07 L -4.4,4.09 -3.36,4.08 -2.35,4.01 -1.34,3.9 -0.35,3.73 0.62,3.5 1.58,3.21 2.52,2.87 3.45,2.46 4.36,2 5.26,1.5 6.15,0.95 7.03,0.37 7.9,-0.24 8.77,-0.87 9.64,-1.5 l 0.86,-0.64 0.87,-0.63 0.87,-0.6 0.88,-0.59 0.89,-0.54 0.9,-0.51 0.91,-0.46 0.93,-0.4 0.94,-0.35 0.96,-0.29 0.97,-0.22 0.99,-0.17 1.01,-0.12 1.01,-0.06 1.04,-0.01 1.04,0.03 1.05,0.06 1.06,0.09 1.07,0.11 1.06,0.12 1.07,0.12 1.07,0.11 1.06,0.09 1.05,0.07 1.04,0.02 1.03,-0.01 1.02,-0.06 1.01,-0.11 0.99,-0.17 0.97,-0.23 0.96,-0.29 0.94,-0.35 0.93,-0.4 0.91,-0.46 0.9,-0.5 0.89,-0.55 0.88,-0.58 0.87,-0.61 0.87,-0.63 0.86,-0.63 0.87,-0.64 0.86,-0.63 0.88,-0.61 0.88,-0.58 0.88,-0.55 0.9,-0.5 0.92,-0.46 0.92,-0.4 0.95,-0.35 0.95,-0.29 0.98,-0.23 0.99,-0.17 1,-0.11 1.02,-0.06 1.03,-0.01 1.05,0.02 1.05,0.07 1.06,0.09 1.06,0.11 1.07,0.12 1.07,0.12 1.06,0.11 1.06,0.09 1.05,0.06 1.05,0.03 1.03,-0.01 1.02,-0.06 1,-0.12 0.99,-0.17 0.98,-0.22 0.96,-0.29 0.94,-0.35 0.92,-0.4 0.92,-0.46 0.9,-0.51 0.89,-0.54 0.88,-0.58 0.87,-0.61 0.86,-0.63 0.87,-0.64 0.86,-0.63 0.87,-0.63 0.87,-0.61 0.88,-0.58 0.89,-0.55 0.9,-0.5 0.91,-0.46 0.93,-0.4 0.94,-0.35 0.96,-0.29 6.82,-80.74 z"
           class="primitive"
           id="path988" />
      </g>
    </g>
    <g
       fill-opacity="0.3"
       fill="#e27394"
       id="img-c512f12b-6">
      <g
         transform="translate(47.26,38.14)"
         id="g995">
        <path
           d="m -97.26,-88.14 v 112.5 l 0.97,-0.23 0.99,-0.17 1,-0.12 1.02,-0.06 1.04,-0.01 1.04,0.03 1.05,0.06 1.06,0.09 1.07,0.11 1.06,0.12 1.07,0.12 1.06,0.11 1.06,0.09 1.06,0.07 1.04,0.03 1.03,-0.02 1.02,-0.06 1.01,-0.11 0.99,-0.17 0.97,-0.23 0.96,-0.29 0.94,-0.35 0.93,-0.4 0.91,-0.46 0.9,-0.5 0.89,-0.55 0.88,-0.58 0.87,-0.61 0.87,-0.63 0.86,-0.63 0.87,-0.64 0.86,-0.63 0.88,-0.61 0.87,-0.58 0.89,-0.55 0.9,-0.5 0.92,-0.46 0.92,-0.4 0.95,-0.35 0.95,-0.29 0.98,-0.23 0.99,-0.17 1,-0.11 1.02,-0.06 1.03,-0.01 1.05,0.03 1.05,0.06 1.06,0.09 1.06,0.11 1.07,0.12 1.07,0.12 1.06,0.11 1.06,0.09 1.05,0.06 1.05,0.03 1.03,-0.01 1.02,-0.06 1,-0.11 0.99,-0.17 0.98,-0.23 0.95,-0.29 0.95,-0.35 0.92,-0.4 0.92,-0.46 0.9,-0.5 0.88,-0.55 0.88,-0.58 0.88,-0.61 0.86,-0.63 0.87,-0.64 0.86,-0.63 0.87,-0.63 0.87,-0.61 0.88,-0.58 0.89,-0.55 0.9,-0.5 0.91,-0.46 0.93,-0.4 0.94,-0.35 0.96,-0.29 0.97,-0.23 0.99,-0.17 1.01,-0.11 1.02,-0.06 1.03,-0.02 1.04,0.03 1.06,0.07 1.05,0.09 1.07,0.11 1.07,0.12 1.06,0.12 1.07,0.11 1.06,0.09 1.05,0.06 L -4.4,3.89 -3.36,3.88 -2.35,3.82 -1.34,3.7 -0.35,3.53 0.62,3.3 1.58,3.02 2.52,2.67 3.45,2.26 4.36,1.81 5.26,1.3 6.15,0.76 7.03,0.17 7.9,-0.44 8.77,-1.06 9.64,-1.7 l 0.86,-0.64 0.87,-0.62 0.87,-0.61 0.88,-0.58 0.89,-0.55 0.9,-0.51 0.91,-0.45 0.93,-0.41 0.94,-0.34 0.96,-0.29 0.97,-0.23 0.99,-0.17 1.01,-0.12 1.01,-0.06 1.04,-0.01 1.04,0.03 1.05,0.06 1.06,0.1 1.07,0.11 1.06,0.11 1.07,0.12 1.07,0.11 1.06,0.09 1.05,0.07 1.04,0.03 1.03,-0.01 1.02,-0.07 1.01,-0.11 0.99,-0.17 0.97,-0.23 0.96,-0.29 0.94,-0.34 0.93,-0.41 0.91,-0.46 0.9,-0.5 0.89,-0.55 0.88,-0.58 0.87,-0.61 0.87,-0.63 0.86,-0.63 0.87,-0.64 0.86,-0.63 0.88,-0.6 0.88,-0.59 0.88,-0.54 0.9,-0.51 0.92,-0.46 0.92,-0.4 0.95,-0.35 0.95,-0.28 0.98,-0.23 0.99,-0.17 1,-0.12 1.02,-0.06 1.03,-0.01 1.05,0.03 1.05,0.06 1.06,0.09 1.06,0.11 1.07,0.12 1.07,0.12 1.06,0.11 1.06,0.09 1.05,0.07 1.05,0.03 1.03,-0.02 1.02,-0.06 1,-0.11 0.99,-0.17 0.98,-0.23 0.96,-0.29 0.94,-0.35 0.92,-0.4 0.92,-0.46 0.9,-0.5 0.89,-0.55 0.88,-0.58 0.87,-0.61 0.86,-0.63 0.87,-0.63 0.86,-0.64 0.87,-0.63 0.87,-0.61 0.88,-0.58 0.89,-0.55 0.9,-0.5 0.91,-0.46 0.93,-0.4 0.94,-0.35 0.96,-0.29 6.82,-60.73 z"
           class="primitive"
           id="path993" />
      </g>
    </g>
    <g
       fill-opacity="0.2"
       fill="#e16e90"
       id="img-c512f12b-7">
      <g
         transform="translate(47.26,18.34)"
         id="g1000">
        <path
           d="m -97.26,-68.34 v 92.5 l 0.97,-0.23 0.99,-0.17 1,-0.11 1.02,-0.06 1.04,-0.02 1.04,0.03 1.05,0.07 1.06,0.09 1.07,0.11 1.06,0.12 1.07,0.11 1.06,0.11 1.06,0.1 1.06,0.06 1.04,0.03 1.03,-0.01 1.02,-0.06 1.01,-0.12 0.99,-0.17 0.97,-0.23 0.96,-0.29 0.94,-0.34 0.93,-0.41 0.91,-0.45 0.9,-0.51 0.89,-0.55 0.88,-0.58 0.87,-0.61 0.87,-0.62 0.86,-0.64 0.87,-0.64 0.86,-0.62 0.88,-0.61 0.87,-0.59 0.89,-0.54 0.9,-0.51 0.92,-0.45 0.92,-0.41 0.95,-0.35 0.95,-0.28 0.98,-0.23 0.99,-0.17 1,-0.12 1.02,-0.06 1.03,-0.01 1.05,0.03 1.05,0.06 1.06,0.09 1.06,0.11 1.07,0.12 1.07,0.12 1.06,0.11 1.06,0.09 1.05,0.07 1.05,0.03 1.03,-0.02 1.02,-0.06 1,-0.11 0.99,-0.17 0.98,-0.23 0.95,-0.29 0.95,-0.35 0.92,-0.4 0.92,-0.46 0.9,-0.5 0.88,-0.55 0.88,-0.58 0.88,-0.61 0.86,-0.63 0.87,-0.63 0.86,-0.64 0.87,-0.63 0.87,-0.61 0.88,-0.58 0.89,-0.55 0.9,-0.5 0.91,-0.46 0.93,-0.4 0.94,-0.35 0.96,-0.29 0.97,-0.23 0.99,-0.17 1.01,-0.11 1.02,-0.06 1.03,-0.01 1.04,0.03 1.06,0.06 1.05,0.09 1.07,0.11 1.07,0.12 1.06,0.12 1.07,0.11 1.06,0.09 1.05,0.06 L -4.4,3.69 -3.36,3.68 -2.35,3.62 -1.34,3.51 -0.35,3.34 0.62,3.11 1.58,2.82 2.52,2.47 3.45,2.07 4.36,1.61 5.26,1.11 6.15,0.56 7.03,-0.02 7.9,-0.63 8.77,-1.26 9.64,-1.9 l 0.86,-0.63 0.87,-0.63 0.87,-0.61 0.88,-0.58 0.89,-0.55 0.9,-0.5 0.91,-0.46 0.93,-0.4 0.94,-0.35 0.96,-0.29 0.97,-0.23 0.99,-0.17 1.01,-0.11 1.01,-0.06 1.04,-0.02 1.04,0.03 1.05,0.07 1.06,0.09 1.07,0.11 1.06,0.12 1.07,0.12 1.07,0.11 1.06,0.09 1.05,0.06 1.04,0.03 1.03,-0.01 1.02,-0.06 1.01,-0.12 0.99,-0.17 0.97,-0.23 0.96,-0.28 0.94,-0.35 0.93,-0.41 0.91,-0.45 0.9,-0.51 0.89,-0.54 0.88,-0.59 0.87,-0.61 0.87,-0.62 0.86,-0.64 0.87,-0.64 0.86,-0.62 0.88,-0.61 0.88,-0.58 0.88,-0.55 0.9,-0.51 0.92,-0.45 0.92,-0.41 0.95,-0.34 0.95,-0.29 0.98,-0.23 0.99,-0.17 1,-0.12 1.02,-0.06 1.03,-0.01 1.05,0.03 1.05,0.06 1.06,0.1 1.06,0.11 1.07,0.11 1.07,0.12 1.06,0.11 1.06,0.09 1.05,0.07 1.05,0.03 1.03,-0.01 1.02,-0.07 1,-0.11 0.99,-0.17 0.98,-0.23 0.96,-0.29 0.94,-0.34 0.92,-0.41 0.92,-0.46 0.9,-0.5 0.89,-0.55 0.88,-0.58 0.87,-0.61 0.86,-0.63 0.87,-0.63 0.86,-0.64 0.87,-0.63 0.87,-0.6 0.88,-0.59 0.89,-0.54 0.9,-0.51 0.91,-0.46 0.93,-0.4 0.94,-0.35 0.96,-0.28 6.82,-40.74 z"
           class="primitive"
           id="path998" />
      </g>
    </g>
    <g
       fill-opacity="0.3"
       fill="#e0688e"
       id="img-c512f12b-8">
      <g
         transform="translate(47.26,-1.46)"
         id="g1005">
        <path
           d="m -97.26,-48.54 v 72.5 l 0.97,-0.23 0.99,-0.17 1,-0.11 1.02,-0.06 1.04,-0.01 1.04,0.02 1.05,0.07 1.06,0.09 1.07,0.11 1.06,0.12 1.07,0.12 1.06,0.11 1.06,0.09 1.06,0.06 1.04,0.03 1.03,-0.01 1.02,-0.06 1.01,-0.12 0.99,-0.17 0.97,-0.22 0.96,-0.29 0.94,-0.35 0.93,-0.4 0.91,-0.46 0.9,-0.51 0.89,-0.54 0.88,-0.58 0.87,-0.61 0.87,-0.63 0.86,-0.64 0.87,-0.63 0.86,-0.63 0.88,-0.61 0.87,-0.58 0.89,-0.55 0.9,-0.5 0.92,-0.46 0.92,-0.4 0.95,-0.35 0.95,-0.29 0.98,-0.23 0.99,-0.17 1,-0.11 1.02,-0.06 1.03,-0.02 1.05,0.03 1.05,0.07 1.06,0.09 1.06,0.11 1.07,0.12 1.07,0.11 1.06,0.11 1.06,0.1 1.05,0.06 1.05,0.03 1.03,-0.01 1.02,-0.06 1,-0.12 0.99,-0.17 0.98,-0.23 0.95,-0.29 0.95,-0.34 0.92,-0.41 0.92,-0.45 0.9,-0.51 0.88,-0.55 0.88,-0.58 0.88,-0.61 0.86,-0.62 0.87,-0.64 0.86,-0.64 0.87,-0.62 0.87,-0.61 0.88,-0.59 0.89,-0.54 0.9,-0.51 0.91,-0.45 0.93,-0.41 0.94,-0.34 0.96,-0.29 0.97,-0.23 0.99,-0.17 1.01,-0.12 1.02,-0.06 1.03,-0.01 1.04,0.03 1.06,0.06 1.05,0.09 1.07,0.11 1.07,0.12 1.06,0.12 1.07,0.11 1.06,0.09 1.05,0.07 L -4.4,3.5 -3.36,3.48 -2.35,3.42 -1.34,3.31 -0.35,3.14 0.62,2.91 1.58,2.62 2.52,2.27 3.45,1.87 4.36,1.41 5.26,0.91 6.15,0.36 7.03,-0.22 7.9,-0.83 l 0.87,-0.63 0.87,-0.63 0.86,-0.64 0.87,-0.63 0.87,-0.61 0.88,-0.58 0.89,-0.54 0.9,-0.51 0.91,-0.46 0.93,-0.4 0.94,-0.35 0.96,-0.29 0.97,-0.23 0.99,-0.17 1.01,-0.11 1.01,-0.06 1.04,-0.01 1.04,0.03 1.05,0.06 1.06,0.09 1.07,0.11 1.06,0.12 1.07,0.12 1.07,0.11 1.06,0.09 1.05,0.06 1.04,0.03 1.03,-0.01 1.02,-0.06 1.01,-0.11 0.99,-0.17 0.97,-0.23 0.96,-0.29 0.94,-0.35 0.93,-0.4 0.91,-0.46 0.9,-0.5 0.89,-0.55 0.88,-0.58 0.87,-0.61 0.87,-0.63 0.86,-0.64 0.87,-0.63 0.86,-0.63 0.88,-0.61 0.88,-0.58 0.88,-0.55 0.9,-0.5 0.92,-0.46 0.92,-0.4 0.95,-0.35 0.95,-0.29 0.98,-0.23 0.99,-0.17 1,-0.11 1.02,-0.06 1.03,-0.02 1.05,0.03 1.05,0.07 1.06,0.09 1.06,0.11 1.07,0.12 1.07,0.12 1.06,0.11 1.06,0.09 1.05,0.06 1.05,0.03 1.03,-0.01 1.02,-0.06 1,-0.12 0.99,-0.17 0.98,-0.23 0.96,-0.28 0.94,-0.35 0.92,-0.41 0.92,-0.45 0.9,-0.51 0.89,-0.54 0.88,-0.59 0.87,-0.6 0.86,-0.63 0.87,-0.64 0.86,-0.64 0.87,-0.62 0.87,-0.61 0.88,-0.58 0.89,-0.55 0.9,-0.51 0.91,-0.45 0.93,-0.41 0.94,-0.34 0.96,-0.29 6.82,-20.74 z"
           class="primitive"
           id="path1003" />
      </g>
    </g>
    <g
       fill-opacity="0.3"
       fill="#df638b"
       id="img-c512f12b-9">
      <g
         transform="translate(47.26,-21.27)"
         id="g1010">
        <path
           d="m -97.26,-28.73 v 52.5 l 0.97,-0.23 0.99,-0.17 1,-0.12 1.02,-0.06 1.04,-0.01 1.04,0.03 1.05,0.06 1.06,0.09 1.07,0.11 1.06,0.12 1.07,0.12 1.06,0.11 1.06,0.09 1.06,0.07 1.04,0.03 1.03,-0.02 1.02,-0.06 1.01,-0.11 0.99,-0.17 0.97,-0.23 0.96,-0.29 0.94,-0.35 0.93,-0.4 0.91,-0.46 0.9,-0.5 0.89,-0.55 0.88,-0.58 0.87,-0.61 0.87,-0.63 0.86,-0.63 0.87,-0.64 0.86,-0.63 0.88,-0.61 0.87,-0.58 0.89,-0.55 0.9,-0.5 0.92,-0.46 0.92,-0.4 0.95,-0.35 0.95,-0.29 0.98,-0.23 0.99,-0.17 1,-0.11 1.02,-0.06 1.03,-0.01 1.05,0.02 1.05,0.07 1.06,0.09 1.06,0.11 1.07,0.12 1.07,0.12 1.06,0.11 1.06,0.09 1.05,0.06 1.05,0.03 1.03,-0.01 1.02,-0.06 1,-0.12 0.99,-0.17 0.98,-0.22 0.95,-0.29 0.95,-0.35 0.92,-0.4 0.92,-0.46 0.9,-0.51 0.88,-0.54 0.88,-0.58 0.88,-0.61 0.86,-0.63 0.87,-0.64 0.86,-0.63 0.87,-0.63 0.87,-0.61 0.88,-0.58 0.89,-0.55 0.9,-0.5 0.91,-0.46 0.93,-0.4 0.94,-0.35 0.96,-0.29 0.97,-0.23 0.99,-0.17 1.01,-0.11 1.02,-0.06 1.03,-0.02 1.04,0.03 1.06,0.07 1.05,0.09 1.07,0.11 1.07,0.12 1.06,0.12 1.07,0.1 1.06,0.1 1.05,0.06 L -4.4,3.3 -3.36,3.29 -2.35,3.23 -1.34,3.11 -0.35,2.94 0.62,2.71 1.58,2.42 2.52,2.08 3.45,1.67 4.36,1.22 5.26,0.71 6.15,0.16 7.03,-0.42 7.9,-1.03 l 0.87,-0.62 0.87,-0.64 0.86,-0.64 0.87,-0.62 0.87,-0.61 0.88,-0.58 0.89,-0.55 0.9,-0.51 0.91,-0.45 0.93,-0.41 0.94,-0.34 0.96,-0.29 0.97,-0.23 0.99,-0.17 1.01,-0.12 1.01,-0.06 1.04,-0.01 1.04,0.03 1.05,0.06 1.06,0.09 1.07,0.11 1.06,0.12 1.07,0.12 1.07,0.11 1.06,0.09 1.05,0.07 1.04,0.03 1.03,-0.02 1.02,-0.06 1.01,-0.11 0.99,-0.17 0.97,-0.23 0.96,-0.29 0.94,-0.35 0.93,-0.4 0.91,-0.46 0.9,-0.5 0.89,-0.55 0.88,-0.58 0.87,-0.61 0.87,-0.63 0.86,-0.63 0.87,-0.64 0.86,-0.63 0.88,-0.61 0.88,-0.58 0.88,-0.54 0.9,-0.51 0.92,-0.46 0.92,-0.4 0.95,-0.35 0.95,-0.29 0.98,-0.23 0.99,-0.17 1,-0.11 1.02,-0.06 1.03,-0.01 1.05,0.03 1.05,0.06 1.06,0.09 1.06,0.11 1.07,0.12 1.07,0.12 1.06,0.11 1.06,0.09 1.05,0.06 1.05,0.03 1.03,-0.01 1.02,-0.06 1,-0.11 0.99,-0.17 0.98,-0.23 0.96,-0.29 0.94,-0.35 0.92,-0.4 0.92,-0.46 0.9,-0.5 0.89,-0.55 0.88,-0.58 0.87,-0.61 0.86,-0.63 0.87,-0.64 0.86,-0.63 0.87,-0.63 0.87,-0.61 0.88,-0.58 0.89,-0.55 0.9,-0.5 0.91,-0.46 0.93,-0.4 0.94,-0.35 0.96,-0.29 6.82,-0.73 z"
           class="primitive"
           id="path1008" />
      </g>
    </g>
    <g
       stroke="#f5f5dc"
       stroke-width="0.25"
       id="img-c512f12b-10">
      <g
         transform="translate(47.24,-20.98)"
         id="g1015">
        <path
           fill="none"
           d="m -97.24,23.48 0.98,-0.23 0.99,-0.17 1,-0.11 1.02,-0.06 1.03,-0.02 1.05,0.03 1.05,0.07 1.06,0.09 1.06,0.11 1.07,0.12 1.07,0.11 1.06,0.11 1.06,0.1 1.05,0.06 1.05,0.03 1.03,-0.01 1.02,-0.06 1,-0.12 0.99,-0.17 0.98,-0.23 0.95,-0.29 0.95,-0.34 0.92,-0.41 0.92,-0.45 0.9,-0.51 0.89,-0.55 0.87,-0.58 0.88,-0.61 0.86,-0.62 0.87,-0.64 0.86,-0.64 0.87,-0.62 0.87,-0.61 0.88,-0.59 0.89,-0.54 0.9,-0.51 0.91,-0.45 0.93,-0.41 0.94,-0.35 0.96,-0.28 0.97,-0.23 0.99,-0.17 1.01,-0.12 1.02,-0.06 1.03,-0.01 1.04,0.03 1.06,0.06 1.06,0.09 1.06,0.11 1.07,0.12 1.06,0.12 1.07,0.11 1.06,0.09 1.05,0.07 1.04,0.03 1.04,-0.02 1.01,-0.06 1.01,-0.11 0.99,-0.17 0.97,-0.23 0.96,-0.29 0.94,-0.35 0.93,-0.4 0.91,-0.46 0.9,-0.5 0.89,-0.55 0.88,-0.58 0.87,-0.61 0.87,-0.63 0.87,-0.63 0.86,-0.64 0.87,-0.63 0.87,-0.61 0.88,-0.58 0.89,-0.55 0.9,-0.5 0.91,-0.46 0.93,-0.4 0.94,-0.35 0.96,-0.29 0.97,-0.23 0.99,-0.17 1.01,-0.11 1.01,-0.06 1.04,-0.01 1.04,0.03 1.05,0.06 1.06,0.09 1.07,0.11 1.06,0.12 1.07,0.12 1.07,0.11 1.06,0.09 1.05,0.06 1.04,0.03 L -3.34,3 -2.32,2.94 -1.31,2.83 -0.32,2.66 0.65,2.43 1.61,2.14 2.55,1.79 3.48,1.39 4.39,0.93 5.29,0.43 6.18,-0.12 7.06,-0.7 7.93,-1.31 8.8,-1.94 l 0.86,-0.64 0.87,-0.63 0.86,-0.63 0.88,-0.61 0.88,-0.58 0.88,-0.55 0.9,-0.5 0.92,-0.46 0.92,-0.4 0.95,-0.35 0.95,-0.29 0.98,-0.23 0.99,-0.17 1,-0.11 1.02,-0.06 1.03,-0.02 1.05,0.03 1.05,0.07 1.06,0.09 1.06,0.11 1.07,0.12 1.07,0.12 1.06,0.11 1.06,0.09 1.06,0.06 1.04,0.03 1.03,-0.01 1.02,-0.06 1,-0.12 0.99,-0.17 0.98,-0.23 0.96,-0.28 0.94,-0.35 0.92,-0.41 0.92,-0.45 0.9,-0.51 0.89,-0.54 0.88,-0.59 0.87,-0.61 0.86,-0.62 0.87,-0.64 0.86,-0.64 0.87,-0.62 0.87,-0.61 0.88,-0.58 0.89,-0.55 0.9,-0.51 0.91,-0.45 0.93,-0.41 0.94,-0.34 0.96,-0.29 0.98,-0.23 0.99,-0.17 1,-0.12 1.02,-0.06 1.03,-0.01 1.04,0.03 1.06,0.06 1.06,0.1 1.06,0.11 1.07,0.11 1.07,0.12 1.06,0.11 1.06,0.09 1.05,0.07 1.05,0.03 1.03,-0.01 1.02,-0.07 1,-0.11 0.99,-0.17 0.97,-0.23 0.96,-0.29 0.94,-0.34 0.93,-0.41 0.91,-0.46 0.9,-0.5 0.89,-0.55 0.88,-0.58 0.87,-0.61 0.87,-0.63 0.87,-0.63 0.86,-0.64 0.87,-0.63 0.87,-0.6 0.88,-0.59 0.89,-0.54 0.9,-0.51 0.91,-0.46 0.93,-0.4 0.94,-0.35 0.96,-0.28"
           class="primitive"
           id="path1013" />
      </g>
      <g
         transform="translate(47.24,-0.98)"
         id="g1019">
        <path
           fill="none"
           d="m -97.24,23.48 0.98,-0.23 0.99,-0.17 1,-0.11 1.02,-0.06 1.03,-0.02 1.05,0.03 1.05,0.07 1.06,0.09 1.06,0.11 1.07,0.12 1.07,0.11 1.06,0.11 1.06,0.1 1.05,0.06 1.05,0.03 1.03,-0.01 1.02,-0.06 1,-0.12 0.99,-0.17 0.98,-0.23 0.95,-0.29 0.95,-0.34 0.92,-0.41 0.92,-0.45 0.9,-0.51 0.89,-0.55 0.87,-0.58 0.88,-0.61 0.86,-0.62 0.87,-0.64 0.86,-0.64 0.87,-0.62 0.87,-0.61 0.88,-0.59 0.89,-0.54 0.9,-0.51 0.91,-0.45 0.93,-0.41 0.94,-0.35 0.96,-0.28 0.97,-0.23 0.99,-0.17 1.01,-0.12 1.02,-0.06 1.03,-0.01 1.04,0.03 1.06,0.06 1.06,0.09 1.06,0.11 1.07,0.12 1.06,0.12 1.07,0.11 1.06,0.09 1.05,0.07 1.04,0.03 1.04,-0.02 1.01,-0.06 1.01,-0.11 0.99,-0.17 0.97,-0.23 0.96,-0.29 0.94,-0.35 0.93,-0.4 0.91,-0.46 0.9,-0.5 0.89,-0.55 0.88,-0.58 0.87,-0.61 0.87,-0.63 0.87,-0.63 0.86,-0.64 0.87,-0.63 0.87,-0.61 0.88,-0.58 0.89,-0.55 0.9,-0.5 0.91,-0.46 0.93,-0.4 0.94,-0.35 0.96,-0.29 0.97,-0.23 0.99,-0.17 1.01,-0.11 1.01,-0.06 1.04,-0.01 1.04,0.03 1.05,0.06 1.06,0.09 1.07,0.11 1.06,0.12 1.07,0.12 1.07,0.11 1.06,0.09 1.05,0.06 1.04,0.03 L -3.34,3 -2.32,2.94 -1.31,2.83 -0.32,2.66 0.65,2.43 1.61,2.14 2.55,1.79 3.48,1.39 4.39,0.93 5.29,0.43 6.18,-0.12 7.06,-0.7 7.93,-1.31 8.8,-1.94 l 0.86,-0.64 0.87,-0.63 0.86,-0.63 0.88,-0.61 0.88,-0.58 0.88,-0.55 0.9,-0.5 0.92,-0.46 0.92,-0.4 0.95,-0.35 0.95,-0.29 0.98,-0.23 0.99,-0.17 1,-0.11 1.02,-0.06 1.03,-0.02 1.05,0.03 1.05,0.07 1.06,0.09 1.06,0.11 1.07,0.12 1.07,0.12 1.06,0.11 1.06,0.09 1.06,0.06 1.04,0.03 1.03,-0.01 1.02,-0.06 1,-0.12 0.99,-0.17 0.98,-0.23 0.96,-0.28 0.94,-0.35 0.92,-0.41 0.92,-0.45 0.9,-0.51 0.89,-0.54 0.88,-0.59 0.87,-0.61 0.86,-0.62 0.87,-0.64 0.86,-0.64 0.87,-0.62 0.87,-0.61 0.88,-0.58 0.89,-0.55 0.9,-0.51 0.91,-0.45 0.93,-0.41 0.94,-0.34 0.96,-0.29 0.98,-0.23 0.99,-0.17 1,-0.12 1.02,-0.06 1.03,-0.01 1.04,0.03 1.06,0.06 1.06,0.1 1.06,0.11 1.07,0.11 1.07,0.12 1.06,0.11 1.06,0.09 1.05,0.07 1.05,0.03 1.03,-0.01 1.02,-0.07 1,-0.11 0.99,-0.17 0.97,-0.23 0.96,-0.29 0.94,-0.34 0.93,-0.41 0.91,-0.46 0.9,-0.5 0.89,-0.55 0.88,-0.58 0.87,-0.61 0.87,-0.63 0.87,-0.63 0.86,-0.64 0.87,-0.63 0.87,-0.6 0.88,-0.59 0.89,-0.54 0.9,-0.51 0.91,-0.46 0.93,-0.4 0.94,-0.35 0.96,-0.28"
           class="primitive"
           id="path1017" />
      </g>
      <g
         transform="translate(47.24,19.02)"
         id="g1023">
        <path
           fill="none"
           d="m -97.24,23.48 0.98,-0.23 0.99,-0.17 1,-0.11 1.02,-0.06 1.03,-0.02 1.05,0.03 1.05,0.07 1.06,0.09 1.06,0.11 1.07,0.12 1.07,0.11 1.06,0.11 1.06,0.1 1.05,0.06 1.05,0.03 1.03,-0.01 1.02,-0.06 1,-0.12 0.99,-0.17 0.98,-0.23 0.95,-0.29 0.95,-0.34 0.92,-0.41 0.92,-0.45 0.9,-0.51 0.89,-0.55 0.87,-0.58 0.88,-0.61 0.86,-0.62 0.87,-0.64 0.86,-0.64 0.87,-0.62 0.87,-0.61 0.88,-0.59 0.89,-0.54 0.9,-0.51 0.91,-0.45 0.93,-0.41 0.94,-0.35 0.96,-0.28 0.97,-0.23 0.99,-0.17 1.01,-0.12 1.02,-0.06 1.03,-0.01 1.04,0.03 1.06,0.06 1.06,0.09 1.06,0.11 1.07,0.12 1.06,0.12 1.07,0.11 1.06,0.09 1.05,0.07 1.04,0.03 1.04,-0.02 1.01,-0.06 1.01,-0.11 0.99,-0.17 0.97,-0.23 0.96,-0.29 0.94,-0.35 0.93,-0.4 0.91,-0.46 0.9,-0.5 0.89,-0.55 0.88,-0.58 0.87,-0.61 0.87,-0.63 0.87,-0.63 0.86,-0.64 0.87,-0.63 0.87,-0.61 0.88,-0.58 0.89,-0.55 0.9,-0.5 0.91,-0.46 0.93,-0.4 0.94,-0.35 0.96,-0.29 0.97,-0.23 0.99,-0.17 1.01,-0.11 1.01,-0.06 1.04,-0.01 1.04,0.03 1.05,0.06 1.06,0.09 1.07,0.11 1.06,0.12 1.07,0.12 1.07,0.11 1.06,0.09 1.05,0.06 1.04,0.03 L -3.34,3 -2.32,2.94 -1.31,2.83 -0.32,2.66 0.65,2.43 1.61,2.14 2.55,1.79 3.48,1.39 4.39,0.93 5.29,0.43 6.18,-0.12 7.06,-0.7 7.93,-1.31 8.8,-1.94 l 0.86,-0.64 0.87,-0.63 0.86,-0.63 0.88,-0.61 0.88,-0.58 0.88,-0.55 0.9,-0.5 0.92,-0.46 0.92,-0.4 0.95,-0.35 0.95,-0.29 0.98,-0.23 0.99,-0.17 1,-0.11 1.02,-0.06 1.03,-0.02 1.05,0.03 1.05,0.07 1.06,0.09 1.06,0.11 1.07,0.12 1.07,0.12 1.06,0.11 1.06,0.09 1.06,0.06 1.04,0.03 1.03,-0.01 1.02,-0.06 1,-0.12 0.99,-0.17 0.98,-0.23 0.96,-0.28 0.94,-0.35 0.92,-0.41 0.92,-0.45 0.9,-0.51 0.89,-0.54 0.88,-0.59 0.87,-0.61 0.86,-0.62 0.87,-0.64 0.86,-0.64 0.87,-0.62 0.87,-0.61 0.88,-0.58 0.89,-0.55 0.9,-0.51 0.91,-0.45 0.93,-0.41 0.94,-0.34 0.96,-0.29 0.98,-0.23 0.99,-0.17 1,-0.12 1.02,-0.06 1.03,-0.01 1.04,0.03 1.06,0.06 1.06,0.1 1.06,0.11 1.07,0.11 1.07,0.12 1.06,0.11 1.06,0.09 1.05,0.07 1.05,0.03 1.03,-0.01 1.02,-0.07 1,-0.11 0.99,-0.17 0.97,-0.23 0.96,-0.29 0.94,-0.34 0.93,-0.41 0.91,-0.46 0.9,-0.5 0.89,-0.55 0.88,-0.58 0.87,-0.61 0.87,-0.63 0.87,-0.63 0.86,-0.64 0.87,-0.63 0.87,-0.6 0.88,-0.59 0.89,-0.54 0.9,-0.51 0.91,-0.46 0.93,-0.4 0.94,-0.35 0.96,-0.28"
           class="primitive"
           id="path1021" />
      </g>
      <g
         transform="translate(47.24,39.02)"
         id="g1027">
        <path
           fill="none"
           d="m -97.24,23.48 0.98,-0.23 0.99,-0.17 1,-0.11 1.02,-0.06 1.03,-0.02 1.05,0.03 1.05,0.07 1.06,0.09 1.06,0.11 1.07,0.12 1.07,0.11 1.06,0.11 1.06,0.1 1.05,0.06 1.05,0.03 1.03,-0.01 1.02,-0.06 1,-0.12 0.99,-0.17 0.98,-0.23 0.95,-0.29 0.95,-0.34 0.92,-0.41 0.92,-0.45 0.9,-0.51 0.89,-0.55 0.87,-0.58 0.88,-0.61 0.86,-0.62 0.87,-0.64 0.86,-0.64 0.87,-0.62 0.87,-0.61 0.88,-0.59 0.89,-0.54 0.9,-0.51 0.91,-0.45 0.93,-0.41 0.94,-0.35 0.96,-0.28 0.97,-0.23 0.99,-0.17 1.01,-0.12 1.02,-0.06 1.03,-0.01 1.04,0.03 1.06,0.06 1.06,0.09 1.06,0.11 1.07,0.12 1.06,0.12 1.07,0.11 1.06,0.09 1.05,0.07 1.04,0.03 1.04,-0.02 1.01,-0.06 1.01,-0.11 0.99,-0.17 0.97,-0.23 0.96,-0.29 0.94,-0.35 0.93,-0.4 0.91,-0.46 0.9,-0.5 0.89,-0.55 0.88,-0.58 0.87,-0.61 0.87,-0.63 0.87,-0.63 0.86,-0.64 0.87,-0.63 0.87,-0.61 0.88,-0.58 0.89,-0.55 0.9,-0.5 0.91,-0.46 0.93,-0.4 0.94,-0.35 0.96,-0.29 0.97,-0.23 0.99,-0.17 1.01,-0.11 1.01,-0.06 1.04,-0.01 1.04,0.03 1.05,0.06 1.06,0.09 1.07,0.11 1.06,0.12 1.07,0.12 1.07,0.11 1.06,0.09 1.05,0.06 1.04,0.03 L -3.34,3 -2.32,2.94 -1.31,2.83 -0.32,2.66 0.65,2.43 1.61,2.14 2.55,1.79 3.48,1.39 4.39,0.93 5.29,0.43 6.18,-0.12 7.06,-0.7 7.93,-1.31 8.8,-1.94 l 0.86,-0.64 0.87,-0.63 0.86,-0.63 0.88,-0.61 0.88,-0.58 0.88,-0.55 0.9,-0.5 0.92,-0.46 0.92,-0.4 0.95,-0.35 0.95,-0.29 0.98,-0.23 0.99,-0.17 1,-0.11 1.02,-0.06 1.03,-0.02 1.05,0.03 1.05,0.07 1.06,0.09 1.06,0.11 1.07,0.12 1.07,0.12 1.06,0.11 1.06,0.09 1.06,0.06 1.04,0.03 1.03,-0.01 1.02,-0.06 1,-0.12 0.99,-0.17 0.98,-0.23 0.96,-0.28 0.94,-0.35 0.92,-0.41 0.92,-0.45 0.9,-0.51 0.89,-0.54 0.88,-0.59 0.87,-0.61 0.86,-0.62 0.87,-0.64 0.86,-0.64 0.87,-0.62 0.87,-0.61 0.88,-0.58 0.89,-0.55 0.9,-0.51 0.91,-0.45 0.93,-0.41 0.94,-0.34 0.96,-0.29 0.98,-0.23 0.99,-0.17 1,-0.12 1.02,-0.06 1.03,-0.01 1.04,0.03 1.06,0.06 1.06,0.1 1.06,0.11 1.07,0.11 1.07,0.12 1.06,0.11 1.06,0.09 1.05,0.07 1.05,0.03 1.03,-0.01 1.02,-0.07 1,-0.11 0.99,-0.17 0.97,-0.23 0.96,-0.29 0.94,-0.34 0.93,-0.41 0.91,-0.46 0.9,-0.5 0.89,-0.55 0.88,-0.58 0.87,-0.61 0.87,-0.63 0.87,-0.63 0.86,-0.64 0.87,-0.63 0.87,-0.6 0.88,-0.59 0.89,-0.54 0.9,-0.51 0.91,-0.46 0.93,-0.4 0.94,-0.35 0.96,-0.28"
           class="primitive"
           id="path1025" />
      </g>
      <g
         transform="translate(47.24,59.02)"
         id="g1031">
        <path
           fill="none"
           d="m -97.24,23.48 0.98,-0.23 0.99,-0.17 1,-0.11 1.02,-0.06 1.03,-0.02 1.05,0.03 1.05,0.07 1.06,0.09 1.06,0.11 1.07,0.12 1.07,0.11 1.06,0.11 1.06,0.1 1.05,0.06 1.05,0.03 1.03,-0.01 1.02,-0.06 1,-0.12 0.99,-0.17 0.98,-0.23 0.95,-0.29 0.95,-0.34 0.92,-0.41 0.92,-0.45 0.9,-0.51 0.89,-0.55 0.87,-0.58 0.88,-0.61 0.86,-0.62 0.87,-0.64 0.86,-0.64 0.87,-0.62 0.87,-0.61 0.88,-0.59 0.89,-0.54 0.9,-0.51 0.91,-0.45 0.93,-0.41 0.94,-0.35 0.96,-0.28 0.97,-0.23 0.99,-0.17 1.01,-0.12 1.02,-0.06 1.03,-0.01 1.04,0.03 1.06,0.06 1.06,0.09 1.06,0.11 1.07,0.12 1.06,0.12 1.07,0.11 1.06,0.09 1.05,0.07 1.04,0.03 1.04,-0.02 1.01,-0.06 1.01,-0.11 0.99,-0.17 0.97,-0.23 0.96,-0.29 0.94,-0.35 0.93,-0.4 0.91,-0.46 0.9,-0.5 0.89,-0.55 0.88,-0.58 0.87,-0.61 0.87,-0.63 0.87,-0.63 0.86,-0.64 0.87,-0.63 0.87,-0.61 0.88,-0.58 0.89,-0.55 0.9,-0.5 0.91,-0.46 0.93,-0.4 0.94,-0.35 0.96,-0.29 0.97,-0.23 0.99,-0.17 1.01,-0.11 1.01,-0.06 1.04,-0.01 1.04,0.03 1.05,0.06 1.06,0.09 1.07,0.11 1.06,0.12 1.07,0.12 1.07,0.11 1.06,0.09 1.05,0.06 1.04,0.03 L -3.34,3 -2.32,2.94 -1.31,2.83 -0.32,2.66 0.65,2.43 1.61,2.14 2.55,1.79 3.48,1.39 4.39,0.93 5.29,0.43 6.18,-0.12 7.06,-0.7 7.93,-1.31 8.8,-1.94 l 0.86,-0.64 0.87,-0.63 0.86,-0.63 0.88,-0.61 0.88,-0.58 0.88,-0.55 0.9,-0.5 0.92,-0.46 0.92,-0.4 0.95,-0.35 0.95,-0.29 0.98,-0.23 0.99,-0.17 1,-0.11 1.02,-0.06 1.03,-0.02 1.05,0.03 1.05,0.07 1.06,0.09 1.06,0.11 1.07,0.12 1.07,0.12 1.06,0.11 1.06,0.09 1.06,0.06 1.04,0.03 1.03,-0.01 1.02,-0.06 1,-0.12 0.99,-0.17 0.98,-0.23 0.96,-0.28 0.94,-0.35 0.92,-0.41 0.92,-0.45 0.9,-0.51 0.89,-0.54 0.88,-0.59 0.87,-0.61 0.86,-0.62 0.87,-0.64 0.86,-0.64 0.87,-0.62 0.87,-0.61 0.88,-0.58 0.89,-0.55 0.9,-0.51 0.91,-0.45 0.93,-0.41 0.94,-0.34 0.96,-0.29 0.98,-0.23 0.99,-0.17 1,-0.12 1.02,-0.06 1.03,-0.01 1.04,0.03 1.06,0.06 1.06,0.1 1.06,0.11 1.07,0.11 1.07,0.12 1.06,0.11 1.06,0.09 1.05,0.07 1.05,0.03 1.03,-0.01 1.02,-0.07 1,-0.11 0.99,-0.17 0.97,-0.23 0.96,-0.29 0.94,-0.34 0.93,-0.41 0.91,-0.46 0.9,-0.5 0.89,-0.55 0.88,-0.58 0.87,-0.61 0.87,-0.63 0.87,-0.63 0.86,-0.64 0.87,-0.63 0.87,-0.6 0.88,-0.59 0.89,-0.54 0.9,-0.51 0.91,-0.46 0.93,-0.4 0.94,-0.35 0.96,-0.28"
           class="primitive"
           id="path1029" />
      </g>
      <g
         transform="translate(47.24,79.02)"
         id="g1035">
        <path
           fill="none"
           d="m -97.24,23.48 0.98,-0.23 0.99,-0.17 1,-0.11 1.02,-0.06 1.03,-0.02 1.05,0.03 1.05,0.07 1.06,0.09 1.06,0.11 1.07,0.12 1.07,0.11 1.06,0.11 1.06,0.1 1.05,0.06 1.05,0.03 1.03,-0.01 1.02,-0.06 1,-0.12 0.99,-0.17 0.98,-0.23 0.95,-0.29 0.95,-0.34 0.92,-0.41 0.92,-0.45 0.9,-0.51 0.89,-0.55 0.87,-0.58 0.88,-0.61 0.86,-0.62 0.87,-0.64 0.86,-0.64 0.87,-0.62 0.87,-0.61 0.88,-0.59 0.89,-0.54 0.9,-0.51 0.91,-0.45 0.93,-0.41 0.94,-0.35 0.96,-0.28 0.97,-0.23 0.99,-0.17 1.01,-0.12 1.02,-0.06 1.03,-0.01 1.04,0.03 1.06,0.06 1.06,0.09 1.06,0.11 1.07,0.12 1.06,0.12 1.07,0.11 1.06,0.09 1.05,0.07 1.04,0.03 1.04,-0.02 1.01,-0.06 1.01,-0.11 0.99,-0.17 0.97,-0.23 0.96,-0.29 0.94,-0.35 0.93,-0.4 0.91,-0.46 0.9,-0.5 0.89,-0.55 0.88,-0.58 0.87,-0.61 0.87,-0.63 0.87,-0.63 0.86,-0.64 0.87,-0.63 0.87,-0.61 0.88,-0.58 0.89,-0.55 0.9,-0.5 0.91,-0.46 0.93,-0.4 0.94,-0.35 0.96,-0.29 0.97,-0.23 0.99,-0.17 1.01,-0.11 1.01,-0.06 1.04,-0.01 1.04,0.03 1.05,0.06 1.06,0.09 1.07,0.11 1.06,0.12 1.07,0.12 1.07,0.11 1.06,0.09 1.05,0.06 1.04,0.03 L -3.34,3 -2.32,2.94 -1.31,2.83 -0.32,2.66 0.65,2.43 1.61,2.14 2.55,1.79 3.48,1.39 4.39,0.93 5.29,0.43 6.18,-0.12 7.06,-0.7 7.93,-1.31 8.8,-1.94 l 0.86,-0.64 0.87,-0.63 0.86,-0.63 0.88,-0.61 0.88,-0.58 0.88,-0.55 0.9,-0.5 0.92,-0.46 0.92,-0.4 0.95,-0.35 0.95,-0.29 0.98,-0.23 0.99,-0.17 1,-0.11 1.02,-0.06 1.03,-0.02 1.05,0.03 1.05,0.07 1.06,0.09 1.06,0.11 1.07,0.12 1.07,0.12 1.06,0.11 1.06,0.09 1.06,0.06 1.04,0.03 1.03,-0.01 1.02,-0.06 1,-0.12 0.99,-0.17 0.98,-0.23 0.96,-0.28 0.94,-0.35 0.92,-0.41 0.92,-0.45 0.9,-0.51 0.89,-0.54 0.88,-0.59 0.87,-0.61 0.86,-0.62 0.87,-0.64 0.86,-0.64 0.87,-0.62 0.87,-0.61 0.88,-0.58 0.89,-0.55 0.9,-0.51 0.91,-0.45 0.93,-0.41 0.94,-0.34 0.96,-0.29 0.98,-0.23 0.99,-0.17 1,-0.12 1.02,-0.06 1.03,-0.01 1.04,0.03 1.06,0.06 1.06,0.1 1.06,0.11 1.07,0.11 1.07,0.12 1.06,0.11 1.06,0.09 1.05,0.07 1.05,0.03 1.03,-0.01 1.02,-0.07 1,-0.11 0.99,-0.17 0.97,-0.23 0.96,-0.29 0.94,-0.34 0.93,-0.41 0.91,-0.46 0.9,-0.5 0.89,-0.55 0.88,-0.58 0.87,-0.61 0.87,-0.63 0.87,-0.63 0.86,-0.64 0.87,-0.63 0.87,-0.6 0.88,-0.59 0.89,-0.54 0.9,-0.51 0.91,-0.46 0.93,-0.4 0.94,-0.35 0.96,-0.28"
           class="primitive"
           id="path1033" />
      </g>
      <g
         transform="translate(47.24,99.02)"
         id="g1039">
        <path
           fill="none"
           d="m -97.24,23.48 0.98,-0.23 0.99,-0.17 1,-0.11 1.02,-0.06 1.03,-0.02 1.05,0.03 1.05,0.07 1.06,0.09 1.06,0.11 1.07,0.12 1.07,0.11 1.06,0.11 1.06,0.1 1.05,0.06 1.05,0.03 1.03,-0.01 1.02,-0.06 1,-0.12 0.99,-0.17 0.98,-0.23 0.95,-0.29 0.95,-0.34 0.92,-0.41 0.92,-0.45 0.9,-0.51 0.89,-0.55 0.87,-0.58 0.88,-0.61 0.86,-0.62 0.87,-0.64 0.86,-0.64 0.87,-0.62 0.87,-0.61 0.88,-0.59 0.89,-0.54 0.9,-0.51 0.91,-0.45 0.93,-0.41 0.94,-0.35 0.96,-0.28 0.97,-0.23 0.99,-0.17 1.01,-0.12 1.02,-0.06 1.03,-0.01 1.04,0.03 1.06,0.06 1.06,0.09 1.06,0.11 1.07,0.12 1.06,0.12 1.07,0.11 1.06,0.09 1.05,0.07 1.04,0.03 1.04,-0.02 1.01,-0.06 1.01,-0.11 0.99,-0.17 0.97,-0.23 0.96,-0.29 0.94,-0.35 0.93,-0.4 0.91,-0.46 0.9,-0.5 0.89,-0.55 0.88,-0.58 0.87,-0.61 0.87,-0.63 0.87,-0.63 0.86,-0.64 0.87,-0.63 0.87,-0.61 0.88,-0.58 0.89,-0.55 0.9,-0.5 0.91,-0.46 0.93,-0.4 0.94,-0.35 0.96,-0.29 0.97,-0.23 0.99,-0.17 1.01,-0.11 1.01,-0.06 1.04,-0.01 1.04,0.03 1.05,0.06 1.06,0.09 1.07,0.11 1.06,0.12 1.07,0.12 1.07,0.11 1.06,0.09 1.05,0.06 1.04,0.03 L -3.34,3 -2.32,2.94 -1.31,2.83 -0.32,2.66 0.65,2.43 1.61,2.14 2.55,1.79 3.48,1.39 4.39,0.93 5.29,0.43 6.18,-0.12 7.06,-0.7 7.93,-1.31 8.8,-1.94 l 0.86,-0.64 0.87,-0.63 0.86,-0.63 0.88,-0.61 0.88,-0.58 0.88,-0.55 0.9,-0.5 0.92,-0.46 0.92,-0.4 0.95,-0.35 0.95,-0.29 0.98,-0.23 0.99,-0.17 1,-0.11 1.02,-0.06 1.03,-0.02 1.05,0.03 1.05,0.07 1.06,0.09 1.06,0.11 1.07,0.12 1.07,0.12 1.06,0.11 1.06,0.09 1.06,0.06 1.04,0.03 1.03,-0.01 1.02,-0.06 1,-0.12 0.99,-0.17 0.98,-0.23 0.96,-0.28 0.94,-0.35 0.92,-0.41 0.92,-0.45 0.9,-0.51 0.89,-0.54 0.88,-0.59 0.87,-0.61 0.86,-0.62 0.87,-0.64 0.86,-0.64 0.87,-0.62 0.87,-0.61 0.88,-0.58 0.89,-0.55 0.9,-0.51 0.91,-0.45 0.93,-0.41 0.94,-0.34 0.96,-0.29 0.98,-0.23 0.99,-0.17 1,-0.12 1.02,-0.06 1.03,-0.01 1.04,0.03 1.06,0.06 1.06,0.1 1.06,0.11 1.07,0.11 1.07,0.12 1.06,0.11 1.06,0.09 1.05,0.07 1.05,0.03 1.03,-0.01 1.02,-0.07 1,-0.11 0.99,-0.17 0.97,-0.23 0.96,-0.29 0.94,-0.34 0.93,-0.41 0.91,-0.46 0.9,-0.5 0.89,-0.55 0.88,-0.58 0.87,-0.61 0.87,-0.63 0.87,-0.63 0.86,-0.64 0.87,-0.63 0.87,-0.6 0.88,-0.59 0.89,-0.54 0.9,-0.51 0.91,-0.46 0.93,-0.4 0.94,-0.35 0.96,-0.28"
           class="primitive"
           id="path1037" />
      </g>
      <g
         transform="translate(47.24,119.02)"
         id="g1043">
        <path
           fill="none"
           d="m -97.24,23.48 0.98,-0.23 0.99,-0.17 1,-0.11 1.02,-0.06 1.03,-0.02 1.05,0.03 1.05,0.07 1.06,0.09 1.06,0.11 1.07,0.12 1.07,0.11 1.06,0.11 1.06,0.1 1.05,0.06 1.05,0.03 1.03,-0.01 1.02,-0.06 1,-0.12 0.99,-0.17 0.98,-0.23 0.95,-0.29 0.95,-0.34 0.92,-0.41 0.92,-0.45 0.9,-0.51 0.89,-0.55 0.87,-0.58 0.88,-0.61 0.86,-0.62 0.87,-0.64 0.86,-0.64 0.87,-0.62 0.87,-0.61 0.88,-0.59 0.89,-0.54 0.9,-0.51 0.91,-0.45 0.93,-0.41 0.94,-0.35 0.96,-0.28 0.97,-0.23 0.99,-0.17 1.01,-0.12 1.02,-0.06 1.03,-0.01 1.04,0.03 1.06,0.06 1.06,0.09 1.06,0.11 1.07,0.12 1.06,0.12 1.07,0.11 1.06,0.09 1.05,0.07 1.04,0.03 1.04,-0.02 1.01,-0.06 1.01,-0.11 0.99,-0.17 0.97,-0.23 0.96,-0.29 0.94,-0.35 0.93,-0.4 0.91,-0.46 0.9,-0.5 0.89,-0.55 0.88,-0.58 0.87,-0.61 0.87,-0.63 0.87,-0.63 0.86,-0.64 0.87,-0.63 0.87,-0.61 0.88,-0.58 0.89,-0.55 0.9,-0.5 0.91,-0.46 0.93,-0.4 0.94,-0.35 0.96,-0.29 0.97,-0.23 0.99,-0.17 1.01,-0.11 1.01,-0.06 1.04,-0.01 1.04,0.03 1.05,0.06 1.06,0.09 1.07,0.11 1.06,0.12 1.07,0.12 1.07,0.11 1.06,0.09 1.05,0.06 1.04,0.03 L -3.34,3 -2.32,2.94 -1.31,2.83 -0.32,2.66 0.65,2.43 1.61,2.14 2.55,1.79 3.48,1.39 4.39,0.93 5.29,0.43 6.18,-0.12 7.06,-0.7 7.93,-1.31 8.8,-1.94 l 0.86,-0.64 0.87,-0.63 0.86,-0.63 0.88,-0.61 0.88,-0.58 0.88,-0.55 0.9,-0.5 0.92,-0.46 0.92,-0.4 0.95,-0.35 0.95,-0.29 0.98,-0.23 0.99,-0.17 1,-0.11 1.02,-0.06 1.03,-0.02 1.05,0.03 1.05,0.07 1.06,0.09 1.06,0.11 1.07,0.12 1.07,0.12 1.06,0.11 1.06,0.09 1.06,0.06 1.04,0.03 1.03,-0.01 1.02,-0.06 1,-0.12 0.99,-0.17 0.98,-0.23 0.96,-0.28 0.94,-0.35 0.92,-0.41 0.92,-0.45 0.9,-0.51 0.89,-0.54 0.88,-0.59 0.87,-0.61 0.86,-0.62 0.87,-0.64 0.86,-0.64 0.87,-0.62 0.87,-0.61 0.88,-0.58 0.89,-0.55 0.9,-0.51 0.91,-0.45 0.93,-0.41 0.94,-0.34 0.96,-0.29 0.98,-0.23 0.99,-0.17 1,-0.12 1.02,-0.06 1.03,-0.01 1.04,0.03 1.06,0.06 1.06,0.1 1.06,0.11 1.07,0.11 1.07,0.12 1.06,0.11 1.06,0.09 1.05,0.07 1.05,0.03 1.03,-0.01 1.02,-0.07 1,-0.11 0.99,-0.17 0.97,-0.23 0.96,-0.29 0.94,-0.34 0.93,-0.41 0.91,-0.46 0.9,-0.5 0.89,-0.55 0.88,-0.58 0.87,-0.61 0.87,-0.63 0.87,-0.63 0.86,-0.64 0.87,-0.63 0.87,-0.6 0.88,-0.59 0.89,-0.54 0.9,-0.51 0.91,-0.46 0.93,-0.4 0.94,-0.35 0.96,-0.28"
           class="primitive"
           id="path1041" />
      </g>
    </g>
    <g
       fill="#f5f5dc"
       id="img-c512f12b-11">
      <g
         transform="translate(50,90)"
         id="g1048">
        <path
           d="M -50,-10 H 50 V 10 H -50 Z"
           class="primitive"
           id="path1046" />
      </g>
    </g>
  </g>
  <g
     inkscape:groupmode="layer"
     id="layer2"
     inkscape:label="seal">
    <text
       xml:space="preserve"
       style="font-style:normal;font-variant:normal;font-weight:bold;font-stretch:normal;font-size:10.5833px;line-height:1.25;font-family:Helvetica;-inkscape-font-specification:'Helvetica Bold';fill:#e4ac86;fill-opacity:1;stroke-width:0.079375"
       x="1.5875"
       y="97.462517"
       id="text1114"><tspan
         sodipodi:role="line"
         id="tspan1112"
         x="1.5875"
         y="97.462517"
         style="font-style:normal;font-variant:normal;font-weight:900;font-stretch:normal;font-family:'Arial Black';-inkscape-font-specification:'Arial Black,  Heavy';fill:#e4ac86;fill-opacity:1;stroke-width:0.079375">LAURA</tspan></text>
    <text
       xml:space="preserve"
       style="font-weight:300;font-size:2.11667px;line-height:1.5;font-family:Helvetica;-inkscape-font-specification:'Helvetica Light';text-align:end;text-anchor:end;mix-blend-mode:multiply;fill:#343434;fill-opacity:1;stroke-width:0.079375;stroke-miterlimit:4;stroke-dasharray:none"
       x="76.931198"
       y="84.641266"
       id="text1130"><tspan
         sodipodi:role="line"
         id="tspan1128"
         x="76.931198"
         y="84.641266"
         style="font-size:2.11667px;text-align:end;text-anchor:end;fill:#1f1f1f;fill-opacity:1;stroke-width:0.079375;stroke-miterlimit:4;stroke-dasharray:none">Japanese Breakfast</tspan><tspan
         sodipodi:role="line"
         x="76.931198"
         y="87.816269"
         style="font-size:2.11667px;text-align:end;text-anchor:end;fill:#1f1f1f;fill-opacity:1;stroke-width:0.079375;stroke-miterlimit:4;stroke-dasharray:none"
         id="tspan1152">Men I Trust</tspan><tspan
         sodipodi:role="line"
         x="76.931198"
         y="90.991272"
         style="font-size:2.11667px;text-align:end;text-anchor:end;fill:#1f1f1f;fill-opacity:1;stroke-width:0.079375;stroke-miterlimit:4;stroke-dasharray:none"
         id="tspan1146">Iron &amp; Wine</tspan><tspan
         sodipodi:role="line"
         x="76.931198"
         y="94.166283"
         style="font-size:2.11667px;text-align:end;text-anchor:end;fill:#1f1f1f;fill-opacity:1;stroke-width:0.079375;stroke-miterlimit:4;stroke-dasharray:none"
         dx="0 0 0 0 0 0 0 0 0 0 0 0 0 0 0 0 0.077528909"
         id="tspan1150">Julien Baker</tspan><tspan
         sodipodi:role="line"
         x="76.931198"
         y="97.341286"
         style="font-size:2.11667px;text-align:end;text-anchor:end;fill:#1f1f1f;fill-opacity:1;stroke-width:0.079375;stroke-miterlimit:4;stroke-dasharray:none"
         id="tspan1142">The Flashbulb</tspan></text>
    <text
       id="text1186"
       y="84.641266"
       x="78.859467"
       style="font-weight:300;font-size:2.11667px;line-height:1.5;font-family:Helvetica;-inkscape-font-specification:'Helvetica Light';text-align:start;text-anchor:start;mix-blend-mode:multiply;fill:#808080;fill-opacity:1;stroke-width:0.079375;stroke-miterlimit:4;stroke-dasharray:none"
       xml:space="preserve"><tspan
         style="font-style:oblique;font-variant:normal;font-weight:300;font-stretch:normal;font-size:2.11667px;font-family:Helvetica;-inkscape-font-specification:'Helvetica Light Oblique';text-align:start;text-anchor:start;fill:#494949;fill-opacity:1;stroke-width:0.079375;stroke-miterlimit:4;stroke-dasharray:none"
         y="84.641266"
         x="78.859467"
         id="tspan1168"
         sodipodi:role="line">In Heaven</tspan><tspan
         id="tspan1172"
         style="font-style:oblique;font-variant:normal;font-weight:300;font-stretch:normal;font-size:2.11667px;font-family:Helvetica;-inkscape-font-specification:'Helvetica Light Oblique';text-align:start;text-anchor:start;fill:#494949;fill-opacity:1;stroke-width:0.079375;stroke-miterlimit:4;stroke-dasharray:none"
         y="87.816269"
         x="78.859467"
         sodipodi:role="line">I Hope to Be Around</tspan><tspan
         id="tspan1180"
         style="font-size:2.11667px;text-align:start;text-anchor:start;fill:#494949;fill-opacity:1;stroke-width:0.079375;stroke-miterlimit:4;stroke-dasharray:none"
         y="90.991272"
         x="78.859467"
         sodipodi:role="line"><tspan
           dx="0 0 0 0 0.077528909"
           id="tspan1188"
           style="font-style:oblique;font-variant:normal;font-weight:300;font-stretch:normal;font-size:2.11667px;font-family:Helvetica;-inkscape-font-specification:'Helvetica Light Oblique';text-align:start;text-anchor:start;fill:#494949;fill-opacity:1;stroke-width:0.079375;stroke-miterlimit:4;stroke-dasharray:none">Passing Afternoon</tspan></tspan><tspan
         dx="0 0 0 0 0 0 0 0 0 0 0 0 0 0 0 0 0 0 0.077528909"
         style="font-style:oblique;font-variant:normal;font-weight:300;font-stretch:normal;font-size:2.11667px;font-family:Helvetica;-inkscape-font-specification:'Helvetica Light Oblique';text-align:start;text-anchor:start;fill:#494949;fill-opacity:1;stroke-width:0.079375;stroke-miterlimit:4;stroke-dasharray:none"
         y="94.166283"
         x="78.859467"
         sodipodi:role="line"
         id="tspan1191">Sprained Ankle</tspan><tspan
         id="tspan1184"
         style="font-style:oblique;font-variant:normal;font-weight:300;font-stretch:normal;font-size:2.11667px;font-family:Helvetica;-inkscape-font-specification:'Helvetica Light Oblique';text-align:start;text-anchor:start;fill:#494949;fill-opacity:1;stroke-width:0.079375;stroke-miterlimit:4;stroke-dasharray:none"
         y="97.341286"
         x="78.859467"
         sodipodi:role="line">Grandfather Clock</tspan></text>
  </g>
</svg>
