<?xml version="1.0" encoding="UTF-8"?>
<svg xmlns="http://www.w3.org/2000/svg"
     xmlns:xlink="http://www.w3.org/1999/xlink"
     version="1.2"
     width="100mm" height="100mm" viewBox="0 0 100 100"
     stroke="none"
     fill="#000000"
     stroke-width="0.3"
     font-size="3.88"
>
<defs>
  <marker id="arrow" markerWidth="15" markerHeight="7" refX="5" refY="3.5" orient="auto" markerUnits="strokeWidth">
    <path d="M0,0 L15,3.5 L0,7 z" stroke="context-stroke" fill="context-stroke"/>
  </marker>
</defs>
<g fill="#E2CA76" id="img-c512f12b-1">
  <g transform="translate(50,50)">
    <path d="M-50,-50 L50,-50 50,50 -50,50  z" class="primitive"/>
  </g>
</g>
<g fill-opacity="0.2" fill="#E8899E" id="img-c512f12b-2">
  <g transform="translate(47.26,117.36)">
    <path d="M-97.26,-167.36 L-97.26,25.14 -96.29,24.92 -95.3,24.74 -94.3,24.63 -93.28,24.57 -92.24,24.56 -91.2,24.59 -90.15,24.65 -89.09,24.74 -88.02,24.85 -86.96,24.97 -85.89,25.09 -84.83,25.2 -83.77,25.29 -82.71,25.36 -81.67,25.38 -80.64,25.37 -79.62,25.31 -78.61,25.2 -77.62,25.03 -76.65,24.8 -75.69,24.51 -74.75,24.16 -73.82,23.76 -72.91,23.3 -72.01,22.8 -71.12,22.25 -70.24,21.67 -69.37,21.06 -68.5,20.43 -67.64,19.79 -66.77,19.16 -65.91,18.53 -65.03,17.92 -64.16,17.34 -63.27,16.79 -62.37,16.29 -61.45,15.83 -60.53,15.43 -59.58,15.08 -58.63,14.79 -57.65,14.56 -56.66,14.39 -55.66,14.28 -54.64,14.22 -53.61,14.2 -52.56,14.23 -51.51,14.3 -50.45,14.39 -49.39,14.5 -48.32,14.62 -47.25,14.74 -46.19,14.85 -45.13,14.94 -44.08,15 -43.03,15.03 -42,15.02 -40.98,14.96 -39.98,14.84 -38.99,14.67 -38.01,14.44 -37.06,14.16 -36.11,13.81 -35.19,13.41 -34.27,12.95 -33.37,12.44 -32.49,11.9 -31.61,11.31 -30.73,10.71 -29.87,10.08 -29,9.44 -28.14,8.81 -27.27,8.18 -26.4,7.57 -25.52,6.99 -24.63,6.44 -23.73,5.94 -22.82,5.48 -21.89,5.07 -20.95,4.73 -19.99,4.44 -19.02,4.21 -18.03,4.04 -17.02,3.93 -16,3.86 -14.97,3.85 -13.93,3.88 -12.87,3.95 -11.82,4.04 -10.75,4.15 -9.68,4.27 -8.62,4.38 -7.55,4.49 -6.49,4.59 -5.44,4.65 -4.4,4.68 -3.36,4.67 -2.35,4.61 -1.34,4.49 -0.35,4.32 0.62,4.09 1.58,3.8 2.52,3.46 3.45,3.05 4.36,2.6 5.26,2.09 6.15,1.54 7.03,0.96 7.9,0.35 8.77,-0.27 9.64,-0.91 10.5,-1.55 11.37,-2.17 12.24,-2.78 13.12,-3.37 14.01,-3.91 14.91,-4.42 15.82,-4.87 16.75,-5.28 17.69,-5.63 18.65,-5.91 19.62,-6.14 20.61,-6.31 21.62,-6.43 22.63,-6.49 23.67,-6.5 24.71,-6.47 25.76,-6.41 26.82,-6.32 27.89,-6.21 28.95,-6.09 30.02,-5.97 31.09,-5.86 32.15,-5.77 33.2,-5.7 34.24,-5.67 35.27,-5.69 36.29,-5.75 37.3,-5.86 38.29,-6.03 39.26,-6.26 40.22,-6.55 41.16,-6.9 42.09,-7.3 43,-7.76 43.9,-8.26 44.79,-8.81 45.67,-9.39 46.54,-10 47.41,-10.63 48.27,-11.26 49.14,-11.9 50,-12.53 50.88,-13.14 51.76,-13.72 52.64,-14.27 53.54,-14.77 54.46,-15.23 55.38,-15.63 56.33,-15.98 57.28,-16.27 58.26,-16.5 59.25,-16.67 60.25,-16.78 61.27,-16.84 62.3,-16.85 63.35,-16.82 64.4,-16.76 65.46,-16.67 66.52,-16.56 67.59,-16.44 68.66,-16.32 69.72,-16.21 70.78,-16.12 71.83,-16.06 72.88,-16.03 73.91,-16.04 74.93,-16.1 75.93,-16.21 76.92,-16.38 77.9,-16.61 78.86,-16.9 79.8,-17.25 80.72,-17.65 81.64,-18.11 82.54,-18.61 83.43,-19.16 84.31,-19.74 85.18,-20.35 86.04,-20.98 86.91,-21.62 87.77,-22.25 88.64,-22.88 89.51,-23.49 90.39,-24.07 91.28,-24.62 92.18,-25.12 93.09,-25.58 94.02,-25.98 94.96,-26.33 95.92,-26.62 102.74,-167.36  z" class="primitive"/>
  </g>
</g>
<g fill-opacity="0.3" fill="#E7849B" id="img-c512f12b-3">
  <g transform="translate(47.26,97.55)">
    <path d="M-97.26,-147.55 L-97.26,24.95 -96.29,24.72 -95.3,24.55 -94.3,24.43 -93.28,24.37 -92.24,24.36 -91.2,24.39 -90.15,24.45 -89.09,24.55 -88.02,24.65 -86.96,24.77 -85.89,24.89 -84.83,25 -83.77,25.09 -82.71,25.16 -81.67,25.19 -80.64,25.17 -79.62,25.11 -78.61,25 -77.62,24.83 -76.65,24.6 -75.69,24.31 -74.75,23.96 -73.82,23.56 -72.91,23.1 -72.01,22.6 -71.12,22.05 -70.24,21.47 -69.37,20.86 -68.5,20.23 -67.64,19.6 -66.77,18.96 -65.91,18.33 -65.03,17.72 -64.16,17.14 -63.27,16.6 -62.37,16.09 -61.45,15.63 -60.53,15.23 -59.58,14.88 -58.63,14.59 -57.65,14.37 -56.66,14.2 -55.66,14.08 -54.64,14.02 -53.61,14.01 -52.56,14.04 -51.51,14.1 -50.45,14.19 -49.39,14.3 -48.32,14.42 -47.25,14.54 -46.19,14.65 -45.13,14.74 -44.08,14.81 -43.03,14.83 -42,14.82 -40.98,14.76 -39.98,14.65 -38.99,14.48 -38.01,14.25 -37.06,13.96 -36.11,13.61 -35.19,13.21 -34.27,12.75 -33.37,12.25 -32.49,11.7 -31.61,11.12 -30.73,10.51 -29.87,9.88 -29,9.24 -28.14,8.61 -27.27,7.98 -26.4,7.37 -25.52,6.79 -24.63,6.24 -23.73,5.74 -22.82,5.28 -21.89,4.88 -20.95,4.53 -19.99,4.24 -19.02,4.01 -18.03,3.84 -17.02,3.73 -16,3.67 -14.97,3.65 -13.93,3.68 -12.87,3.75 -11.82,3.84 -10.75,3.95 -9.68,4.07 -8.62,4.19 -7.55,4.3 -6.49,4.39 -5.44,4.45 -4.4,4.48 -3.36,4.47 -2.35,4.41 -1.34,4.29 -0.35,4.12 0.62,3.9 1.58,3.61 2.52,3.26 3.45,2.86 4.36,2.4 5.26,1.89 6.15,1.35 7.03,0.76 7.9,0.16 8.77,-0.47 9.64,-1.11 10.5,-1.74 11.37,-2.37 12.24,-2.98 13.12,-3.56 14.01,-4.11 14.91,-4.61 15.82,-5.07 16.75,-5.48 17.69,-5.82 18.65,-6.11 19.62,-6.34 20.61,-6.51 21.62,-6.62 22.63,-6.69 23.67,-6.7 24.71,-6.67 25.76,-6.6 26.82,-6.51 27.89,-6.4 28.95,-6.28 30.02,-6.17 31.09,-6.06 32.15,-5.96 33.2,-5.9 34.24,-5.87 35.27,-5.88 36.29,-5.94 37.3,-6.06 38.29,-6.23 39.26,-6.46 40.22,-6.75 41.16,-7.09 42.09,-7.5 43,-7.95 43.9,-8.46 44.79,-9.01 45.67,-9.59 46.54,-10.2 47.41,-10.82 48.27,-11.46 49.14,-12.1 50,-12.72 50.88,-13.33 51.76,-13.92 52.64,-14.46 53.54,-14.97 54.46,-15.42 55.38,-15.83 56.33,-16.18 57.28,-16.46 58.26,-16.69 59.25,-16.86 60.25,-16.98 61.27,-17.04 62.3,-17.05 63.35,-17.02 64.4,-16.96 65.46,-16.87 66.52,-16.76 67.59,-16.64 68.66,-16.52 69.72,-16.41 70.78,-16.32 71.83,-16.25 72.88,-16.22 73.91,-16.24 74.93,-16.3 75.93,-16.41 76.92,-16.58 77.9,-16.81 78.86,-17.1 79.8,-17.45 80.72,-17.85 81.64,-18.31 82.54,-18.81 83.43,-19.36 84.31,-19.94 85.18,-20.55 86.04,-21.18 86.91,-21.81 87.77,-22.45 88.64,-23.08 89.51,-23.69 90.39,-24.27 91.28,-24.82 92.18,-25.32 93.09,-25.78 94.02,-26.18 94.96,-26.53 95.92,-26.82 102.74,-147.55  z" class="primitive"/>
  </g>
</g>
<g fill-opacity="0.3" fill="#E67E99" id="img-c512f12b-4">
  <g transform="translate(47.26,77.75)">
    <path d="M-97.26,-127.75 L-97.26,24.75 -96.29,24.52 -95.3,24.35 -94.3,24.24 -93.28,24.18 -92.24,24.16 -91.2,24.19 -90.15,24.26 -89.09,24.35 -88.02,24.46 -86.96,24.58 -85.89,24.7 -84.83,24.81 -83.77,24.9 -82.71,24.96 -81.67,24.99 -80.64,24.98 -79.62,24.92 -78.61,24.8 -77.62,24.63 -76.65,24.4 -75.69,24.11 -74.75,23.77 -73.82,23.36 -72.91,22.91 -72.01,22.4 -71.12,21.86 -70.24,21.27 -69.37,20.66 -68.5,20.04 -67.64,19.4 -66.77,18.76 -65.91,18.14 -65.03,17.53 -64.16,16.95 -63.27,16.4 -62.37,15.89 -61.45,15.44 -60.53,15.03 -59.58,14.69 -58.63,14.4 -57.65,14.17 -56.66,14 -55.66,13.88 -54.64,13.82 -53.61,13.81 -52.56,13.84 -51.51,13.9 -50.45,14 -49.39,14.11 -48.32,14.22 -47.25,14.34 -46.19,14.45 -45.13,14.54 -44.08,14.61 -43.03,14.64 -42,14.62 -40.98,14.56 -39.98,14.45 -38.99,14.28 -38.01,14.05 -37.06,13.76 -36.11,13.41 -35.19,13.01 -34.27,12.55 -33.37,12.05 -32.49,11.5 -31.61,10.92 -30.73,10.31 -29.87,9.68 -29,9.05 -28.14,8.41 -27.27,7.78 -26.4,7.17 -25.52,6.59 -24.63,6.05 -23.73,5.54 -22.82,5.08 -21.89,4.68 -20.95,4.33 -19.99,4.04 -19.02,3.82 -18.03,3.65 -17.02,3.53 -16,3.47 -14.97,3.46 -13.93,3.49 -12.87,3.55 -11.82,3.64 -10.75,3.75 -9.68,3.87 -8.62,3.99 -7.55,4.1 -6.49,4.19 -5.44,4.26 -4.4,4.28 -3.36,4.27 -2.35,4.21 -1.34,4.1 -0.35,3.93 0.62,3.7 1.58,3.41 2.52,3.06 3.45,2.66 4.36,2.2 5.26,1.7 6.15,1.15 7.03,0.57 7.9,-0.04 8.77,-0.67 9.64,-1.31 10.5,-1.94 11.37,-2.57 12.24,-3.18 13.12,-3.76 14.01,-4.31 14.91,-4.81 15.82,-5.27 16.75,-5.67 17.69,-6.02 18.65,-6.31 19.62,-6.54 20.61,-6.71 21.62,-6.82 22.63,-6.88 23.67,-6.89 24.71,-6.87 25.76,-6.8 26.82,-6.71 27.89,-6.6 28.95,-6.48 30.02,-6.36 31.09,-6.25 32.15,-6.16 33.2,-6.1 34.24,-6.07 35.27,-6.08 36.29,-6.14 37.3,-6.26 38.29,-6.43 39.26,-6.65 40.22,-6.94 41.16,-7.29 42.09,-7.69 43,-8.15 43.9,-8.66 44.79,-9.2 45.67,-9.79 46.54,-10.39 47.41,-11.02 48.27,-11.66 49.14,-12.29 50,-12.92 50.88,-13.53 51.76,-14.11 52.64,-14.66 53.54,-15.16 54.46,-15.62 55.38,-16.02 56.33,-16.37 57.28,-16.66 58.26,-16.89 59.25,-17.06 60.25,-17.17 61.27,-17.23 62.3,-17.25 63.35,-17.22 64.4,-17.15 65.46,-17.06 66.52,-16.95 67.59,-16.83 68.66,-16.72 69.72,-16.61 70.78,-16.51 71.83,-16.45 72.88,-16.42 73.91,-16.43 74.93,-16.49 75.93,-16.61 76.92,-16.78 77.9,-17.01 78.86,-17.3 79.8,-17.64 80.72,-18.05 81.64,-18.5 82.54,-19.01 83.43,-19.56 84.31,-20.14 85.18,-20.75 86.04,-21.37 86.91,-22.01 87.77,-22.65 88.64,-23.27 89.51,-23.88 90.39,-24.47 91.28,-25.01 92.18,-25.52 93.09,-25.97 94.02,-26.38 94.96,-26.73 95.92,-27.01 102.74,-127.75  z" class="primitive"/>
  </g>
</g>
<g fill-opacity="0.3" fill="#E47896" id="img-c512f12b-5">
  <g transform="translate(47.26,57.95)">
    <path d="M-97.26,-107.95 L-97.26,24.55 -96.29,24.32 -95.3,24.15 -94.3,24.04 -93.28,23.98 -92.24,23.97 -91.2,24 -90.15,24.06 -89.09,24.15 -88.02,24.26 -86.96,24.38 -85.89,24.5 -84.83,24.61 -83.77,24.7 -82.71,24.76 -81.67,24.79 -80.64,24.78 -79.62,24.72 -78.61,24.61 -77.62,24.44 -76.65,24.21 -75.69,23.92 -74.75,23.57 -73.82,23.17 -72.91,22.71 -72.01,22.21 -71.12,21.66 -70.24,21.08 -69.37,20.47 -68.5,19.84 -67.64,19.2 -66.77,18.57 -65.91,17.94 -65.03,17.33 -64.16,16.75 -63.27,16.2 -62.37,15.7 -61.45,15.24 -60.53,14.84 -59.58,14.49 -58.63,14.2 -57.65,13.97 -56.66,13.8 -55.66,13.69 -54.64,13.63 -53.61,13.61 -52.56,13.64 -51.51,13.71 -50.45,13.8 -49.39,13.91 -48.32,14.03 -47.25,14.15 -46.19,14.26 -45.13,14.35 -44.08,14.41 -43.03,14.44 -42,14.43 -40.98,14.37 -39.98,14.25 -38.99,14.08 -38.01,13.85 -37.06,13.57 -36.11,13.22 -35.19,12.81 -34.27,12.36 -33.37,11.85 -32.49,11.31 -31.61,10.72 -30.73,10.11 -29.87,9.49 -29,8.85 -28.14,8.21 -27.27,7.59 -26.4,6.98 -25.52,6.4 -24.63,5.85 -23.73,5.34 -22.82,4.89 -21.89,4.48 -20.95,4.14 -19.99,3.85 -19.02,3.62 -18.03,3.45 -17.02,3.33 -16,3.27 -14.97,3.26 -13.93,3.29 -12.87,3.35 -11.82,3.45 -10.75,3.56 -9.68,3.67 -8.62,3.79 -7.55,3.9 -6.49,3.99 -5.44,4.06 -4.4,4.09 -3.36,4.08 -2.35,4.01 -1.34,3.9 -0.35,3.73 0.62,3.5 1.58,3.21 2.52,2.87 3.45,2.46 4.36,2 5.26,1.5 6.15,0.95 7.03,0.37 7.9,-0.24 8.77,-0.87 9.64,-1.5 10.5,-2.14 11.37,-2.77 12.24,-3.37 13.12,-3.96 14.01,-4.5 14.91,-5.01 15.82,-5.47 16.75,-5.87 17.69,-6.22 18.65,-6.51 19.62,-6.73 20.61,-6.9 21.62,-7.02 22.63,-7.08 23.67,-7.09 24.71,-7.06 25.76,-7 26.82,-6.91 27.89,-6.8 28.95,-6.68 30.02,-6.56 31.09,-6.45 32.15,-6.36 33.2,-6.29 34.24,-6.27 35.27,-6.28 36.29,-6.34 37.3,-6.45 38.29,-6.62 39.26,-6.85 40.22,-7.14 41.16,-7.49 42.09,-7.89 43,-8.35 43.9,-8.85 44.79,-9.4 45.67,-9.98 46.54,-10.59 47.41,-11.22 48.27,-11.85 49.14,-12.49 50,-13.12 50.88,-13.73 51.76,-14.31 52.64,-14.86 53.54,-15.36 54.46,-15.82 55.38,-16.22 56.33,-16.57 57.28,-16.86 58.26,-17.09 59.25,-17.26 60.25,-17.37 61.27,-17.43 62.3,-17.44 63.35,-17.42 64.4,-17.35 65.46,-17.26 66.52,-17.15 67.59,-17.03 68.66,-16.91 69.72,-16.8 70.78,-16.71 71.83,-16.65 72.88,-16.62 73.91,-16.63 74.93,-16.69 75.93,-16.81 76.92,-16.98 77.9,-17.2 78.86,-17.49 79.8,-17.84 80.72,-18.24 81.64,-18.7 82.54,-19.21 83.43,-19.75 84.31,-20.33 85.18,-20.94 86.04,-21.57 86.91,-22.21 87.77,-22.84 88.64,-23.47 89.51,-24.08 90.39,-24.66 91.28,-25.21 92.18,-25.71 93.09,-26.17 94.02,-26.57 94.96,-26.92 95.92,-27.21 102.74,-107.95  z" class="primitive"/>
  </g>
</g>
<g fill-opacity="0.3" fill="#E27394" id="img-c512f12b-6">
  <g transform="translate(47.26,38.14)">
    <path d="M-97.26,-88.14 L-97.26,24.36 -96.29,24.13 -95.3,23.96 -94.3,23.84 -93.28,23.78 -92.24,23.77 -91.2,23.8 -90.15,23.86 -89.09,23.95 -88.02,24.06 -86.96,24.18 -85.89,24.3 -84.83,24.41 -83.77,24.5 -82.71,24.57 -81.67,24.6 -80.64,24.58 -79.62,24.52 -78.61,24.41 -77.62,24.24 -76.65,24.01 -75.69,23.72 -74.75,23.37 -73.82,22.97 -72.91,22.51 -72.01,22.01 -71.12,21.46 -70.24,20.88 -69.37,20.27 -68.5,19.64 -67.64,19.01 -66.77,18.37 -65.91,17.74 -65.03,17.13 -64.16,16.55 -63.27,16 -62.37,15.5 -61.45,15.04 -60.53,14.64 -59.58,14.29 -58.63,14 -57.65,13.77 -56.66,13.6 -55.66,13.49 -54.64,13.43 -53.61,13.42 -52.56,13.45 -51.51,13.51 -50.45,13.6 -49.39,13.71 -48.32,13.83 -47.25,13.95 -46.19,14.06 -45.13,14.15 -44.08,14.21 -43.03,14.24 -42,14.23 -40.98,14.17 -39.98,14.06 -38.99,13.89 -38.01,13.66 -37.06,13.37 -36.11,13.02 -35.19,12.62 -34.27,12.16 -33.37,11.66 -32.49,11.11 -31.61,10.53 -30.73,9.92 -29.87,9.29 -29,8.65 -28.14,8.02 -27.27,7.39 -26.4,6.78 -25.52,6.2 -24.63,5.65 -23.73,5.15 -22.82,4.69 -21.89,4.29 -20.95,3.94 -19.99,3.65 -19.02,3.42 -18.03,3.25 -17.02,3.14 -16,3.08 -14.97,3.06 -13.93,3.09 -12.87,3.16 -11.82,3.25 -10.75,3.36 -9.68,3.48 -8.62,3.6 -7.55,3.71 -6.49,3.8 -5.44,3.86 -4.4,3.89 -3.36,3.88 -2.35,3.82 -1.34,3.7 -0.35,3.53 0.62,3.3 1.58,3.02 2.52,2.67 3.45,2.26 4.36,1.81 5.26,1.3 6.15,0.76 7.03,0.17 7.9,-0.44 8.77,-1.06 9.64,-1.7 10.5,-2.34 11.37,-2.96 12.24,-3.57 13.12,-4.15 14.01,-4.7 14.91,-5.21 15.82,-5.66 16.75,-6.07 17.69,-6.41 18.65,-6.7 19.62,-6.93 20.61,-7.1 21.62,-7.22 22.63,-7.28 23.67,-7.29 24.71,-7.26 25.76,-7.2 26.82,-7.1 27.89,-6.99 28.95,-6.88 30.02,-6.76 31.09,-6.65 32.15,-6.56 33.2,-6.49 34.24,-6.46 35.27,-6.47 36.29,-6.54 37.3,-6.65 38.29,-6.82 39.26,-7.05 40.22,-7.34 41.16,-7.68 42.09,-8.09 43,-8.55 43.9,-9.05 44.79,-9.6 45.67,-10.18 46.54,-10.79 47.41,-11.42 48.27,-12.05 49.14,-12.69 50,-13.32 50.88,-13.92 51.76,-14.51 52.64,-15.05 53.54,-15.56 54.46,-16.02 55.38,-16.42 56.33,-16.77 57.28,-17.05 58.26,-17.28 59.25,-17.45 60.25,-17.57 61.27,-17.63 62.3,-17.64 63.35,-17.61 64.4,-17.55 65.46,-17.46 66.52,-17.35 67.59,-17.23 68.66,-17.11 69.72,-17 70.78,-16.91 71.83,-16.84 72.88,-16.81 73.91,-16.83 74.93,-16.89 75.93,-17 76.92,-17.17 77.9,-17.4 78.86,-17.69 79.8,-18.04 80.72,-18.44 81.64,-18.9 82.54,-19.4 83.43,-19.95 84.31,-20.53 85.18,-21.14 86.04,-21.77 86.91,-22.4 87.77,-23.04 88.64,-23.67 89.51,-24.28 90.39,-24.86 91.28,-25.41 92.18,-25.91 93.09,-26.37 94.02,-26.77 94.96,-27.12 95.92,-27.41 102.74,-88.14  z" class="primitive"/>
  </g>
</g>
<g fill-opacity="0.2" fill="#E16E90" id="img-c512f12b-7">
  <g transform="translate(47.26,18.34)">
    <path d="M-97.26,-68.34 L-97.26,24.16 -96.29,23.93 -95.3,23.76 -94.3,23.65 -93.28,23.59 -92.24,23.57 -91.2,23.6 -90.15,23.67 -89.09,23.76 -88.02,23.87 -86.96,23.99 -85.89,24.1 -84.83,24.21 -83.77,24.31 -82.71,24.37 -81.67,24.4 -80.64,24.39 -79.62,24.33 -78.61,24.21 -77.62,24.04 -76.65,23.81 -75.69,23.52 -74.75,23.18 -73.82,22.77 -72.91,22.32 -72.01,21.81 -71.12,21.26 -70.24,20.68 -69.37,20.07 -68.5,19.45 -67.64,18.81 -66.77,18.17 -65.91,17.55 -65.03,16.94 -64.16,16.35 -63.27,15.81 -62.37,15.3 -61.45,14.85 -60.53,14.44 -59.58,14.09 -58.63,13.81 -57.65,13.58 -56.66,13.41 -55.66,13.29 -54.64,13.23 -53.61,13.22 -52.56,13.25 -51.51,13.31 -50.45,13.4 -49.39,13.51 -48.32,13.63 -47.25,13.75 -46.19,13.86 -45.13,13.95 -44.08,14.02 -43.03,14.05 -42,14.03 -40.98,13.97 -39.98,13.86 -38.99,13.69 -38.01,13.46 -37.06,13.17 -36.11,12.82 -35.19,12.42 -34.27,11.96 -33.37,11.46 -32.49,10.91 -31.61,10.33 -30.73,9.72 -29.87,9.09 -29,8.46 -28.14,7.82 -27.27,7.19 -26.4,6.58 -25.52,6 -24.63,5.45 -23.73,4.95 -22.82,4.49 -21.89,4.09 -20.95,3.74 -19.99,3.45 -19.02,3.22 -18.03,3.05 -17.02,2.94 -16,2.88 -14.97,2.87 -13.93,2.9 -12.87,2.96 -11.82,3.05 -10.75,3.16 -9.68,3.28 -8.62,3.4 -7.55,3.51 -6.49,3.6 -5.44,3.66 -4.4,3.69 -3.36,3.68 -2.35,3.62 -1.34,3.51 -0.35,3.34 0.62,3.11 1.58,2.82 2.52,2.47 3.45,2.07 4.36,1.61 5.26,1.11 6.15,0.56 7.03,-0.02 7.9,-0.63 8.77,-1.26 9.64,-1.9 10.5,-2.53 11.37,-3.16 12.24,-3.77 13.12,-4.35 14.01,-4.9 14.91,-5.4 15.82,-5.86 16.75,-6.26 17.69,-6.61 18.65,-6.9 19.62,-7.13 20.61,-7.3 21.62,-7.41 22.63,-7.47 23.67,-7.49 24.71,-7.46 25.76,-7.39 26.82,-7.3 27.89,-7.19 28.95,-7.07 30.02,-6.95 31.09,-6.84 32.15,-6.75 33.2,-6.69 34.24,-6.66 35.27,-6.67 36.29,-6.73 37.3,-6.85 38.29,-7.02 39.26,-7.25 40.22,-7.53 41.16,-7.88 42.09,-8.29 43,-8.74 43.9,-9.25 44.79,-9.79 45.67,-10.38 46.54,-10.99 47.41,-11.61 48.27,-12.25 49.14,-12.89 50,-13.51 50.88,-14.12 51.76,-14.7 52.64,-15.25 53.54,-15.76 54.46,-16.21 55.38,-16.62 56.33,-16.96 57.28,-17.25 58.26,-17.48 59.25,-17.65 60.25,-17.77 61.27,-17.83 62.3,-17.84 63.35,-17.81 64.4,-17.75 65.46,-17.65 66.52,-17.54 67.59,-17.43 68.66,-17.31 69.72,-17.2 70.78,-17.11 71.83,-17.04 72.88,-17.01 73.91,-17.02 74.93,-17.09 75.93,-17.2 76.92,-17.37 77.9,-17.6 78.86,-17.89 79.8,-18.23 80.72,-18.64 81.64,-19.1 82.54,-19.6 83.43,-20.15 84.31,-20.73 85.18,-21.34 86.04,-21.97 86.91,-22.6 87.77,-23.24 88.64,-23.87 89.51,-24.47 90.39,-25.06 91.28,-25.6 92.18,-26.11 93.09,-26.57 94.02,-26.97 94.96,-27.32 95.92,-27.6 102.74,-68.34  z" class="primitive"/>
  </g>
</g>
<g fill-opacity="0.3" fill="#E0688E" id="img-c512f12b-8">
  <g transform="translate(47.26,-1.46)">
    <path d="M-97.26,-48.54 L-97.26,23.96 -96.29,23.73 -95.3,23.56 -94.3,23.45 -93.28,23.39 -92.24,23.38 -91.2,23.4 -90.15,23.47 -89.09,23.56 -88.02,23.67 -86.96,23.79 -85.89,23.91 -84.83,24.02 -83.77,24.11 -82.71,24.17 -81.67,24.2 -80.64,24.19 -79.62,24.13 -78.61,24.01 -77.62,23.84 -76.65,23.62 -75.69,23.33 -74.75,22.98 -73.82,22.58 -72.91,22.12 -72.01,21.61 -71.12,21.07 -70.24,20.49 -69.37,19.88 -68.5,19.25 -67.64,18.61 -66.77,17.98 -65.91,17.35 -65.03,16.74 -64.16,16.16 -63.27,15.61 -62.37,15.11 -61.45,14.65 -60.53,14.25 -59.58,13.9 -58.63,13.61 -57.65,13.38 -56.66,13.21 -55.66,13.1 -54.64,13.04 -53.61,13.02 -52.56,13.05 -51.51,13.12 -50.45,13.21 -49.39,13.32 -48.32,13.44 -47.25,13.55 -46.19,13.66 -45.13,13.76 -44.08,13.82 -43.03,13.85 -42,13.84 -40.98,13.78 -39.98,13.66 -38.99,13.49 -38.01,13.26 -37.06,12.97 -36.11,12.63 -35.19,12.22 -34.27,11.77 -33.37,11.26 -32.49,10.71 -31.61,10.13 -30.73,9.52 -29.87,8.9 -29,8.26 -28.14,7.62 -27.27,7 -26.4,6.39 -25.52,5.8 -24.63,5.26 -23.73,4.75 -22.82,4.3 -21.89,3.89 -20.95,3.55 -19.99,3.26 -19.02,3.03 -18.03,2.86 -17.02,2.74 -16,2.68 -14.97,2.67 -13.93,2.7 -12.87,2.76 -11.82,2.85 -10.75,2.96 -9.68,3.08 -8.62,3.2 -7.55,3.31 -6.49,3.4 -5.44,3.47 -4.4,3.5 -3.36,3.48 -2.35,3.42 -1.34,3.31 -0.35,3.14 0.62,2.91 1.58,2.62 2.52,2.27 3.45,1.87 4.36,1.41 5.26,0.91 6.15,0.36 7.03,-0.22 7.9,-0.83 8.77,-1.46 9.64,-2.09 10.5,-2.73 11.37,-3.36 12.24,-3.97 13.12,-4.55 14.01,-5.09 14.91,-5.6 15.82,-6.06 16.75,-6.46 17.69,-6.81 18.65,-7.1 19.62,-7.33 20.61,-7.5 21.62,-7.61 22.63,-7.67 23.67,-7.68 24.71,-7.65 25.76,-7.59 26.82,-7.5 27.89,-7.39 28.95,-7.27 30.02,-7.15 31.09,-7.04 32.15,-6.95 33.2,-6.89 34.24,-6.86 35.27,-6.87 36.29,-6.93 37.3,-7.04 38.29,-7.21 39.26,-7.44 40.22,-7.73 41.16,-8.08 42.09,-8.48 43,-8.94 43.9,-9.44 44.79,-9.99 45.67,-10.57 46.54,-11.18 47.41,-11.81 48.27,-12.45 49.14,-13.08 50,-13.71 50.88,-14.32 51.76,-14.9 52.64,-15.45 53.54,-15.95 54.46,-16.41 55.38,-16.81 56.33,-17.16 57.28,-17.45 58.26,-17.68 59.25,-17.85 60.25,-17.96 61.27,-18.02 62.3,-18.04 63.35,-18.01 64.4,-17.94 65.46,-17.85 66.52,-17.74 67.59,-17.62 68.66,-17.5 69.72,-17.39 70.78,-17.3 71.83,-17.24 72.88,-17.21 73.91,-17.22 74.93,-17.28 75.93,-17.4 76.92,-17.57 77.9,-17.8 78.86,-18.08 79.8,-18.43 80.72,-18.84 81.64,-19.29 82.54,-19.8 83.43,-20.34 84.31,-20.93 85.18,-21.53 86.04,-22.16 86.91,-22.8 87.77,-23.44 88.64,-24.06 89.51,-24.67 90.39,-25.25 91.28,-25.8 92.18,-26.31 93.09,-26.76 94.02,-27.17 94.96,-27.51 95.92,-27.8 102.74,-48.54  z" class="primitive"/>
  </g>
</g>
<g fill-opacity="0.3" fill="#DF638B" id="img-c512f12b-9">
  <g transform="translate(47.26,-21.27)">
    <path d="M-97.26,-28.73 L-97.26,23.77 -96.29,23.54 -95.3,23.37 -94.3,23.25 -93.28,23.19 -92.24,23.18 -91.2,23.21 -90.15,23.27 -89.09,23.36 -88.02,23.47 -86.96,23.59 -85.89,23.71 -84.83,23.82 -83.77,23.91 -82.71,23.98 -81.67,24.01 -80.64,23.99 -79.62,23.93 -78.61,23.82 -77.62,23.65 -76.65,23.42 -75.69,23.13 -74.75,22.78 -73.82,22.38 -72.91,21.92 -72.01,21.42 -71.12,20.87 -70.24,20.29 -69.37,19.68 -68.5,19.05 -67.64,18.42 -66.77,17.78 -65.91,17.15 -65.03,16.54 -64.16,15.96 -63.27,15.41 -62.37,14.91 -61.45,14.45 -60.53,14.05 -59.58,13.7 -58.63,13.41 -57.65,13.18 -56.66,13.01 -55.66,12.9 -54.64,12.84 -53.61,12.83 -52.56,12.85 -51.51,12.92 -50.45,13.01 -49.39,13.12 -48.32,13.24 -47.25,13.36 -46.19,13.47 -45.13,13.56 -44.08,13.62 -43.03,13.65 -42,13.64 -40.98,13.58 -39.98,13.46 -38.99,13.29 -38.01,13.07 -37.06,12.78 -36.11,12.43 -35.19,12.03 -34.27,11.57 -33.37,11.06 -32.49,10.52 -31.61,9.94 -30.73,9.33 -29.87,8.7 -29,8.06 -28.14,7.43 -27.27,6.8 -26.4,6.19 -25.52,5.61 -24.63,5.06 -23.73,4.56 -22.82,4.1 -21.89,3.7 -20.95,3.35 -19.99,3.06 -19.02,2.83 -18.03,2.66 -17.02,2.55 -16,2.49 -14.97,2.47 -13.93,2.5 -12.87,2.57 -11.82,2.66 -10.75,2.77 -9.68,2.89 -8.62,3.01 -7.55,3.11 -6.49,3.21 -5.44,3.27 -4.4,3.3 -3.36,3.29 -2.35,3.23 -1.34,3.11 -0.35,2.94 0.62,2.71 1.58,2.42 2.52,2.08 3.45,1.67 4.36,1.22 5.26,0.71 6.15,0.16 7.03,-0.42 7.9,-1.03 8.77,-1.65 9.64,-2.29 10.5,-2.93 11.37,-3.55 12.24,-4.16 13.12,-4.74 14.01,-5.29 14.91,-5.8 15.82,-6.25 16.75,-6.66 17.69,-7 18.65,-7.29 19.62,-7.52 20.61,-7.69 21.62,-7.81 22.63,-7.87 23.67,-7.88 24.71,-7.85 25.76,-7.79 26.82,-7.7 27.89,-7.59 28.95,-7.47 30.02,-7.35 31.09,-7.24 32.15,-7.15 33.2,-7.08 34.24,-7.05 35.27,-7.07 36.29,-7.13 37.3,-7.24 38.29,-7.41 39.26,-7.64 40.22,-7.93 41.16,-8.28 42.09,-8.68 43,-9.14 43.9,-9.64 44.79,-10.19 45.67,-10.77 46.54,-11.38 47.41,-12.01 48.27,-12.64 49.14,-13.28 50,-13.91 50.88,-14.52 51.76,-15.1 52.64,-15.64 53.54,-16.15 54.46,-16.61 55.38,-17.01 56.33,-17.36 57.28,-17.65 58.26,-17.88 59.25,-18.05 60.25,-18.16 61.27,-18.22 62.3,-18.23 63.35,-18.2 64.4,-18.14 65.46,-18.05 66.52,-17.94 67.59,-17.82 68.66,-17.7 69.72,-17.59 70.78,-17.5 71.83,-17.44 72.88,-17.41 73.91,-17.42 74.93,-17.48 75.93,-17.59 76.92,-17.76 77.9,-17.99 78.86,-18.28 79.8,-18.63 80.72,-19.03 81.64,-19.49 82.54,-19.99 83.43,-20.54 84.31,-21.12 85.18,-21.73 86.04,-22.36 86.91,-23 87.77,-23.63 88.64,-24.26 89.51,-24.87 90.39,-25.45 91.28,-26 92.18,-26.5 93.09,-26.96 94.02,-27.36 94.96,-27.71 95.92,-28 102.74,-28.73  z" class="primitive"/>
  </g>
</g>
<g stroke="#F5F5DC" stroke-width="0.25" id="img-c512f12b-10">
  <g transform="translate(47.24,-20.98)">
    <path fill="none" d="M-97.24,23.48 L-96.26,23.25 -95.27,23.08 -94.27,22.97 -93.25,22.91 -92.22,22.89 -91.17,22.92 -90.12,22.99 -89.06,23.08 -88,23.19 -86.93,23.31 -85.86,23.42 -84.8,23.53 -83.74,23.63 -82.69,23.69 -81.64,23.72 -80.61,23.71 -79.59,23.65 -78.59,23.53 -77.6,23.36 -76.62,23.13 -75.67,22.84 -74.72,22.5 -73.8,22.09 -72.88,21.64 -71.98,21.13 -71.09,20.58 -70.22,20 -69.34,19.39 -68.48,18.77 -67.61,18.13 -66.75,17.49 -65.88,16.87 -65.01,16.26 -64.13,15.67 -63.24,15.13 -62.34,14.62 -61.43,14.17 -60.5,13.76 -59.56,13.41 -58.6,13.13 -57.63,12.9 -56.64,12.73 -55.63,12.61 -54.61,12.55 -53.58,12.54 -52.54,12.57 -51.48,12.63 -50.42,12.72 -49.36,12.83 -48.29,12.95 -47.23,13.07 -46.16,13.18 -45.1,13.27 -44.05,13.34 -43.01,13.37 -41.97,13.35 -40.96,13.29 -39.95,13.18 -38.96,13.01 -37.99,12.78 -37.03,12.49 -36.09,12.14 -35.16,11.74 -34.25,11.28 -33.35,10.78 -32.46,10.23 -31.58,9.65 -30.71,9.04 -29.84,8.41 -28.97,7.78 -28.11,7.14 -27.24,6.51 -26.37,5.9 -25.49,5.32 -24.6,4.77 -23.7,4.27 -22.79,3.81 -21.86,3.41 -20.92,3.06 -19.96,2.77 -18.99,2.54 -18,2.37 -16.99,2.26 -15.98,2.2 -14.94,2.19 -13.9,2.22 -12.85,2.28 -11.79,2.37 -10.72,2.48 -9.66,2.6 -8.59,2.72 -7.52,2.83 -6.46,2.92 -5.41,2.98 -4.37,3.01 -3.34,3 -2.32,2.94 -1.31,2.83 -0.32,2.66 0.65,2.43 1.61,2.14 2.55,1.79 3.48,1.39 4.39,0.93 5.29,0.43 6.18,-0.12 7.06,-0.7 7.93,-1.31 8.8,-1.94 9.66,-2.58 10.53,-3.21 11.39,-3.84 12.27,-4.45 13.15,-5.03 14.03,-5.58 14.93,-6.08 15.85,-6.54 16.77,-6.94 17.72,-7.29 18.67,-7.58 19.65,-7.81 20.64,-7.98 21.64,-8.09 22.66,-8.15 23.69,-8.17 24.74,-8.14 25.79,-8.07 26.85,-7.98 27.91,-7.87 28.98,-7.75 30.05,-7.63 31.11,-7.52 32.17,-7.43 33.23,-7.37 34.27,-7.34 35.3,-7.35 36.32,-7.41 37.32,-7.53 38.31,-7.7 39.29,-7.93 40.25,-8.21 41.19,-8.56 42.11,-8.97 43.03,-9.42 43.93,-9.93 44.82,-10.47 45.7,-11.06 46.57,-11.67 47.43,-12.29 48.3,-12.93 49.16,-13.57 50.03,-14.19 50.9,-14.8 51.78,-15.38 52.67,-15.93 53.57,-16.44 54.48,-16.89 55.41,-17.3 56.35,-17.64 57.31,-17.93 58.29,-18.16 59.28,-18.33 60.28,-18.45 61.3,-18.51 62.33,-18.52 63.37,-18.49 64.43,-18.43 65.49,-18.33 66.55,-18.22 67.62,-18.11 68.69,-17.99 69.75,-17.88 70.81,-17.79 71.86,-17.72 72.91,-17.69 73.94,-17.7 74.96,-17.77 75.96,-17.88 76.95,-18.05 77.92,-18.28 78.88,-18.57 79.82,-18.91 80.75,-19.32 81.66,-19.78 82.56,-20.28 83.45,-20.83 84.33,-21.41 85.2,-22.02 86.07,-22.65 86.94,-23.28 87.8,-23.92 88.67,-24.55 89.54,-25.15 90.42,-25.74 91.31,-26.28 92.21,-26.79 93.12,-27.25 94.05,-27.65 94.99,-28 95.95,-28.28 " class="primitive"/>
  </g>
  <g transform="translate(47.24,-0.98)">
    <path fill="none" d="M-97.24,23.48 L-96.26,23.25 -95.27,23.08 -94.27,22.97 -93.25,22.91 -92.22,22.89 -91.17,22.92 -90.12,22.99 -89.06,23.08 -88,23.19 -86.93,23.31 -85.86,23.42 -84.8,23.53 -83.74,23.63 -82.69,23.69 -81.64,23.72 -80.61,23.71 -79.59,23.65 -78.59,23.53 -77.6,23.36 -76.62,23.13 -75.67,22.84 -74.72,22.5 -73.8,22.09 -72.88,21.64 -71.98,21.13 -71.09,20.58 -70.22,20 -69.34,19.39 -68.48,18.77 -67.61,18.13 -66.75,17.49 -65.88,16.87 -65.01,16.26 -64.13,15.67 -63.24,15.13 -62.34,14.62 -61.43,14.17 -60.5,13.76 -59.56,13.41 -58.6,13.13 -57.63,12.9 -56.64,12.73 -55.63,12.61 -54.61,12.55 -53.58,12.54 -52.54,12.57 -51.48,12.63 -50.42,12.72 -49.36,12.83 -48.29,12.95 -47.23,13.07 -46.16,13.18 -45.1,13.27 -44.05,13.34 -43.01,13.37 -41.97,13.35 -40.96,13.29 -39.95,13.18 -38.96,13.01 -37.99,12.78 -37.03,12.49 -36.09,12.14 -35.16,11.74 -34.25,11.28 -33.35,10.78 -32.46,10.23 -31.58,9.65 -30.71,9.04 -29.84,8.41 -28.97,7.78 -28.11,7.14 -27.24,6.51 -26.37,5.9 -25.49,5.32 -24.6,4.77 -23.7,4.27 -22.79,3.81 -21.86,3.41 -20.92,3.06 -19.96,2.77 -18.99,2.54 -18,2.37 -16.99,2.26 -15.98,2.2 -14.94,2.19 -13.9,2.22 -12.85,2.28 -11.79,2.37 -10.72,2.48 -9.66,2.6 -8.59,2.72 -7.52,2.83 -6.46,2.92 -5.41,2.98 -4.37,3.01 -3.34,3 -2.32,2.94 -1.31,2.83 -0.32,2.66 0.65,2.43 1.61,2.14 2.55,1.79 3.48,1.39 4.39,0.93 5.29,0.43 6.18,-0.12 7.06,-0.7 7.93,-1.31 8.8,-1.94 9.66,-2.58 10.53,-3.21 11.39,-3.84 12.27,-4.45 13.15,-5.03 14.03,-5.58 14.93,-6.08 15.85,-6.54 16.77,-6.94 17.72,-7.29 18.67,-7.58 19.65,-7.81 20.64,-7.98 21.64,-8.09 22.66,-8.15 23.69,-8.17 24.74,-8.14 25.79,-8.07 26.85,-7.98 27.91,-7.87 28.98,-7.75 30.05,-7.63 31.11,-7.52 32.17,-7.43 33.23,-7.37 34.27,-7.34 35.3,-7.35 36.32,-7.41 37.32,-7.53 38.31,-7.7 39.29,-7.93 40.25,-8.21 41.19,-8.56 42.11,-8.97 43.03,-9.42 43.93,-9.93 44.82,-10.47 45.7,-11.06 46.57,-11.67 47.43,-12.29 48.3,-12.93 49.16,-13.57 50.03,-14.19 50.9,-14.8 51.78,-15.38 52.67,-15.93 53.57,-16.44 54.48,-16.89 55.41,-17.3 56.35,-17.64 57.31,-17.93 58.29,-18.16 59.28,-18.33 60.28,-18.45 61.3,-18.51 62.33,-18.52 63.37,-18.49 64.43,-18.43 65.49,-18.33 66.55,-18.22 67.62,-18.11 68.69,-17.99 69.75,-17.88 70.81,-17.79 71.86,-17.72 72.91,-17.69 73.94,-17.7 74.96,-17.77 75.96,-17.88 76.95,-18.05 77.92,-18.28 78.88,-18.57 79.82,-18.91 80.75,-19.32 81.66,-19.78 82.56,-20.28 83.45,-20.83 84.33,-21.41 85.2,-22.02 86.07,-22.65 86.94,-23.28 87.8,-23.92 88.67,-24.55 89.54,-25.15 90.42,-25.74 91.31,-26.28 92.21,-26.79 93.12,-27.25 94.05,-27.65 94.99,-28 95.95,-28.28 " class="primitive"/>
  </g>
  <g transform="translate(47.24,19.02)">
    <path fill="none" d="M-97.24,23.48 L-96.26,23.25 -95.27,23.08 -94.27,22.97 -93.25,22.91 -92.22,22.89 -91.17,22.92 -90.12,22.99 -89.06,23.08 -88,23.19 -86.93,23.31 -85.86,23.42 -84.8,23.53 -83.74,23.63 -82.69,23.69 -81.64,23.72 -80.61,23.71 -79.59,23.65 -78.59,23.53 -77.6,23.36 -76.62,23.13 -75.67,22.84 -74.72,22.5 -73.8,22.09 -72.88,21.64 -71.98,21.13 -71.09,20.58 -70.22,20 -69.34,19.39 -68.48,18.77 -67.61,18.13 -66.75,17.49 -65.88,16.87 -65.01,16.26 -64.13,15.67 -63.24,15.13 -62.34,14.62 -61.43,14.17 -60.5,13.76 -59.56,13.41 -58.6,13.13 -57.63,12.9 -56.64,12.73 -55.63,12.61 -54.61,12.55 -53.58,12.54 -52.54,12.57 -51.48,12.63 -50.42,12.72 -49.36,12.83 -48.29,12.95 -47.23,13.07 -46.16,13.18 -45.1,13.27 -44.05,13.34 -43.01,13.37 -41.97,13.35 -40.96,13.29 -39.95,13.18 -38.96,13.01 -37.99,12.78 -37.03,12.49 -36.09,12.14 -35.16,11.74 -34.25,11.28 -33.35,10.78 -32.46,10.23 -31.58,9.65 -30.71,9.04 -29.84,8.41 -28.97,7.78 -28.11,7.14 -27.24,6.51 -26.37,5.9 -25.49,5.32 -24.6,4.77 -23.7,4.27 -22.79,3.81 -21.86,3.41 -20.92,3.06 -19.96,2.77 -18.99,2.54 -18,2.37 -16.99,2.26 -15.98,2.2 -14.94,2.19 -13.9,2.22 -12.85,2.28 -11.79,2.37 -10.72,2.48 -9.66,2.6 -8.59,2.72 -7.52,2.83 -6.46,2.92 -5.41,2.98 -4.37,3.01 -3.34,3 -2.32,2.94 -1.31,2.83 -0.32,2.66 0.65,2.43 1.61,2.14 2.55,1.79 3.48,1.39 4.39,0.93 5.29,0.43 6.18,-0.12 7.06,-0.7 7.93,-1.31 8.8,-1.94 9.66,-2.58 10.53,-3.21 11.39,-3.84 12.27,-4.45 13.15,-5.03 14.03,-5.58 14.93,-6.08 15.85,-6.54 16.77,-6.94 17.72,-7.29 18.67,-7.58 19.65,-7.81 20.64,-7.98 21.64,-8.09 22.66,-8.15 23.69,-8.17 24.74,-8.14 25.79,-8.07 26.85,-7.98 27.91,-7.87 28.98,-7.75 30.05,-7.63 31.11,-7.52 32.17,-7.43 33.23,-7.37 34.27,-7.34 35.3,-7.35 36.32,-7.41 37.32,-7.53 38.31,-7.7 39.29,-7.93 40.25,-8.21 41.19,-8.56 42.11,-8.97 43.03,-9.42 43.93,-9.93 44.82,-10.47 45.7,-11.06 46.57,-11.67 47.43,-12.29 48.3,-12.93 49.16,-13.57 50.03,-14.19 50.9,-14.8 51.78,-15.38 52.67,-15.93 53.57,-16.44 54.48,-16.89 55.41,-17.3 56.35,-17.64 57.31,-17.93 58.29,-18.16 59.28,-18.33 60.28,-18.45 61.3,-18.51 62.33,-18.52 63.37,-18.49 64.43,-18.43 65.49,-18.33 66.55,-18.22 67.62,-18.11 68.69,-17.99 69.75,-17.88 70.81,-17.79 71.86,-17.72 72.91,-17.69 73.94,-17.7 74.96,-17.77 75.96,-17.88 76.95,-18.05 77.92,-18.28 78.88,-18.57 79.82,-18.91 80.75,-19.32 81.66,-19.78 82.56,-20.28 83.45,-20.83 84.33,-21.41 85.2,-22.02 86.07,-22.65 86.94,-23.28 87.8,-23.92 88.67,-24.55 89.54,-25.15 90.42,-25.74 91.31,-26.28 92.21,-26.79 93.12,-27.25 94.05,-27.65 94.99,-28 95.95,-28.28 " class="primitive"/>
  </g>
  <g transform="translate(47.24,39.02)">
    <path fill="none" d="M-97.24,23.48 L-96.26,23.25 -95.27,23.08 -94.27,22.97 -93.25,22.91 -92.22,22.89 -91.17,22.92 -90.12,22.99 -89.06,23.08 -88,23.19 -86.93,23.31 -85.86,23.42 -84.8,23.53 -83.74,23.63 -82.69,23.69 -81.64,23.72 -80.61,23.71 -79.59,23.65 -78.59,23.53 -77.6,23.36 -76.62,23.13 -75.67,22.84 -74.72,22.5 -73.8,22.09 -72.88,21.64 -71.98,21.13 -71.09,20.58 -70.22,20 -69.34,19.39 -68.48,18.77 -67.61,18.13 -66.75,17.49 -65.88,16.87 -65.01,16.26 -64.13,15.67 -63.24,15.13 -62.34,14.62 -61.43,14.17 -60.5,13.76 -59.56,13.41 -58.6,13.13 -57.63,12.9 -56.64,12.73 -55.63,12.61 -54.61,12.55 -53.58,12.54 -52.54,12.57 -51.48,12.63 -50.42,12.72 -49.36,12.83 -48.29,12.95 -47.23,13.07 -46.16,13.18 -45.1,13.27 -44.05,13.34 -43.01,13.37 -41.97,13.35 -40.96,13.29 -39.95,13.18 -38.96,13.01 -37.99,12.78 -37.03,12.49 -36.09,12.14 -35.16,11.74 -34.25,11.28 -33.35,10.78 -32.46,10.23 -31.58,9.65 -30.71,9.04 -29.84,8.41 -28.97,7.78 -28.11,7.14 -27.24,6.51 -26.37,5.9 -25.49,5.32 -24.6,4.77 -23.7,4.27 -22.79,3.81 -21.86,3.41 -20.92,3.06 -19.96,2.77 -18.99,2.54 -18,2.37 -16.99,2.26 -15.98,2.2 -14.94,2.19 -13.9,2.22 -12.85,2.28 -11.79,2.37 -10.72,2.48 -9.66,2.6 -8.59,2.72 -7.52,2.83 -6.46,2.92 -5.41,2.98 -4.37,3.01 -3.34,3 -2.32,2.94 -1.31,2.83 -0.32,2.66 0.65,2.43 1.61,2.14 2.55,1.79 3.48,1.39 4.39,0.93 5.29,0.43 6.18,-0.12 7.06,-0.7 7.93,-1.31 8.8,-1.94 9.66,-2.58 10.53,-3.21 11.39,-3.84 12.27,-4.45 13.15,-5.03 14.03,-5.58 14.93,-6.08 15.85,-6.54 16.77,-6.94 17.72,-7.29 18.67,-7.58 19.65,-7.81 20.64,-7.98 21.64,-8.09 22.66,-8.15 23.69,-8.17 24.74,-8.14 25.79,-8.07 26.85,-7.98 27.91,-7.87 28.98,-7.75 30.05,-7.63 31.11,-7.52 32.17,-7.43 33.23,-7.37 34.27,-7.34 35.3,-7.35 36.32,-7.41 37.32,-7.53 38.31,-7.7 39.29,-7.93 40.25,-8.21 41.19,-8.56 42.11,-8.97 43.03,-9.42 43.93,-9.93 44.82,-10.47 45.7,-11.06 46.57,-11.67 47.43,-12.29 48.3,-12.93 49.16,-13.57 50.03,-14.19 50.9,-14.8 51.78,-15.38 52.67,-15.93 53.57,-16.44 54.48,-16.89 55.41,-17.3 56.35,-17.64 57.31,-17.93 58.29,-18.16 59.28,-18.33 60.28,-18.45 61.3,-18.51 62.33,-18.52 63.37,-18.49 64.43,-18.43 65.49,-18.33 66.55,-18.22 67.62,-18.11 68.69,-17.99 69.75,-17.88 70.81,-17.79 71.86,-17.72 72.91,-17.69 73.94,-17.7 74.96,-17.77 75.96,-17.88 76.95,-18.05 77.92,-18.28 78.88,-18.57 79.82,-18.91 80.75,-19.32 81.66,-19.78 82.56,-20.28 83.45,-20.83 84.33,-21.41 85.2,-22.02 86.07,-22.65 86.94,-23.28 87.8,-23.92 88.67,-24.55 89.54,-25.15 90.42,-25.74 91.31,-26.28 92.21,-26.79 93.12,-27.25 94.05,-27.65 94.99,-28 95.95,-28.28 " class="primitive"/>
  </g>
  <g transform="translate(47.24,59.02)">
    <path fill="none" d="M-97.24,23.48 L-96.26,23.25 -95.27,23.08 -94.27,22.97 -93.25,22.91 -92.22,22.89 -91.17,22.92 -90.12,22.99 -89.06,23.08 -88,23.19 -86.93,23.31 -85.86,23.42 -84.8,23.53 -83.74,23.63 -82.69,23.69 -81.64,23.72 -80.61,23.71 -79.59,23.65 -78.59,23.53 -77.6,23.36 -76.62,23.13 -75.67,22.84 -74.72,22.5 -73.8,22.09 -72.88,21.64 -71.98,21.13 -71.09,20.58 -70.22,20 -69.34,19.39 -68.48,18.77 -67.61,18.13 -66.75,17.49 -65.88,16.87 -65.01,16.26 -64.13,15.67 -63.24,15.13 -62.34,14.62 -61.43,14.17 -60.5,13.76 -59.56,13.41 -58.6,13.13 -57.63,12.9 -56.64,12.73 -55.63,12.61 -54.61,12.55 -53.58,12.54 -52.54,12.57 -51.48,12.63 -50.42,12.72 -49.36,12.83 -48.29,12.95 -47.23,13.07 -46.16,13.18 -45.1,13.27 -44.05,13.34 -43.01,13.37 -41.97,13.35 -40.96,13.29 -39.95,13.18 -38.96,13.01 -37.99,12.78 -37.03,12.49 -36.09,12.14 -35.16,11.74 -34.25,11.28 -33.35,10.78 -32.46,10.23 -31.58,9.65 -30.71,9.04 -29.84,8.41 -28.97,7.78 -28.11,7.14 -27.24,6.51 -26.37,5.9 -25.49,5.32 -24.6,4.77 -23.7,4.27 -22.79,3.81 -21.86,3.41 -20.92,3.06 -19.96,2.77 -18.99,2.54 -18,2.37 -16.99,2.26 -15.98,2.2 -14.94,2.19 -13.9,2.22 -12.85,2.28 -11.79,2.37 -10.72,2.48 -9.66,2.6 -8.59,2.72 -7.52,2.83 -6.46,2.92 -5.41,2.98 -4.37,3.01 -3.34,3 -2.32,2.94 -1.31,2.83 -0.32,2.66 0.65,2.43 1.61,2.14 2.55,1.79 3.48,1.39 4.39,0.93 5.29,0.43 6.18,-0.12 7.06,-0.7 7.93,-1.31 8.8,-1.94 9.66,-2.58 10.53,-3.21 11.39,-3.84 12.27,-4.45 13.15,-5.03 14.03,-5.58 14.93,-6.08 15.85,-6.54 16.77,-6.94 17.72,-7.29 18.67,-7.58 19.65,-7.81 20.64,-7.98 21.64,-8.09 22.66,-8.15 23.69,-8.17 24.74,-8.14 25.79,-8.07 26.85,-7.98 27.91,-7.87 28.98,-7.75 30.05,-7.63 31.11,-7.52 32.17,-7.43 33.23,-7.37 34.27,-7.34 35.3,-7.35 36.32,-7.41 37.32,-7.53 38.31,-7.7 39.29,-7.93 40.25,-8.21 41.19,-8.56 42.11,-8.97 43.03,-9.42 43.93,-9.93 44.82,-10.47 45.7,-11.06 46.57,-11.67 47.43,-12.29 48.3,-12.93 49.16,-13.57 50.03,-14.19 50.9,-14.8 51.78,-15.38 52.67,-15.93 53.57,-16.44 54.48,-16.89 55.41,-17.3 56.35,-17.64 57.31,-17.93 58.29,-18.16 59.28,-18.33 60.28,-18.45 61.3,-18.51 62.33,-18.52 63.37,-18.49 64.43,-18.43 65.49,-18.33 66.55,-18.22 67.62,-18.11 68.69,-17.99 69.75,-17.88 70.81,-17.79 71.86,-17.72 72.91,-17.69 73.94,-17.7 74.96,-17.77 75.96,-17.88 76.95,-18.05 77.92,-18.28 78.88,-18.57 79.82,-18.91 80.75,-19.32 81.66,-19.78 82.56,-20.28 83.45,-20.83 84.33,-21.41 85.2,-22.02 86.07,-22.65 86.94,-23.28 87.8,-23.92 88.67,-24.55 89.54,-25.15 90.42,-25.74 91.31,-26.28 92.21,-26.79 93.12,-27.25 94.05,-27.65 94.99,-28 95.95,-28.28 " class="primitive"/>
  </g>
  <g transform="translate(47.24,79.02)">
    <path fill="none" d="M-97.24,23.48 L-96.26,23.25 -95.27,23.08 -94.27,22.97 -93.25,22.91 -92.22,22.89 -91.17,22.92 -90.12,22.99 -89.06,23.08 -88,23.19 -86.93,23.31 -85.86,23.42 -84.8,23.53 -83.74,23.63 -82.69,23.69 -81.64,23.72 -80.61,23.71 -79.59,23.65 -78.59,23.53 -77.6,23.36 -76.62,23.13 -75.67,22.84 -74.72,22.5 -73.8,22.09 -72.88,21.64 -71.98,21.13 -71.09,20.58 -70.22,20 -69.34,19.39 -68.48,18.77 -67.61,18.13 -66.75,17.49 -65.88,16.87 -65.01,16.26 -64.13,15.67 -63.24,15.13 -62.34,14.62 -61.43,14.17 -60.5,13.76 -59.56,13.41 -58.6,13.13 -57.63,12.9 -56.64,12.73 -55.63,12.61 -54.61,12.55 -53.58,12.54 -52.54,12.57 -51.48,12.63 -50.42,12.72 -49.36,12.83 -48.29,12.95 -47.23,13.07 -46.16,13.18 -45.1,13.27 -44.05,13.34 -43.01,13.37 -41.97,13.35 -40.96,13.29 -39.95,13.18 -38.96,13.01 -37.99,12.78 -37.03,12.49 -36.09,12.14 -35.16,11.74 -34.25,11.28 -33.35,10.78 -32.46,10.23 -31.58,9.65 -30.71,9.04 -29.84,8.41 -28.97,7.78 -28.11,7.14 -27.24,6.51 -26.37,5.9 -25.49,5.32 -24.6,4.77 -23.7,4.27 -22.79,3.81 -21.86,3.41 -20.92,3.06 -19.96,2.77 -18.99,2.54 -18,2.37 -16.99,2.26 -15.98,2.2 -14.94,2.19 -13.9,2.22 -12.85,2.28 -11.79,2.37 -10.72,2.48 -9.66,2.6 -8.59,2.72 -7.52,2.83 -6.46,2.92 -5.41,2.98 -4.37,3.01 -3.34,3 -2.32,2.94 -1.31,2.83 -0.32,2.66 0.65,2.43 1.61,2.14 2.55,1.79 3.48,1.39 4.39,0.93 5.29,0.43 6.18,-0.12 7.06,-0.7 7.93,-1.31 8.8,-1.94 9.66,-2.58 10.53,-3.21 11.39,-3.84 12.27,-4.45 13.15,-5.03 14.03,-5.58 14.93,-6.08 15.85,-6.54 16.77,-6.94 17.72,-7.29 18.67,-7.58 19.65,-7.81 20.64,-7.98 21.64,-8.09 22.66,-8.15 23.69,-8.17 24.74,-8.14 25.79,-8.07 26.85,-7.98 27.91,-7.87 28.98,-7.75 30.05,-7.63 31.11,-7.52 32.17,-7.43 33.23,-7.37 34.27,-7.34 35.3,-7.35 36.32,-7.41 37.32,-7.53 38.31,-7.7 39.29,-7.93 40.25,-8.21 41.19,-8.56 42.11,-8.97 43.03,-9.42 43.93,-9.93 44.82,-10.47 45.7,-11.06 46.57,-11.67 47.43,-12.29 48.3,-12.93 49.16,-13.57 50.03,-14.19 50.9,-14.8 51.78,-15.38 52.67,-15.93 53.57,-16.44 54.48,-16.89 55.41,-17.3 56.35,-17.64 57.31,-17.93 58.29,-18.16 59.28,-18.33 60.28,-18.45 61.3,-18.51 62.33,-18.52 63.37,-18.49 64.43,-18.43 65.49,-18.33 66.55,-18.22 67.62,-18.11 68.69,-17.99 69.75,-17.88 70.81,-17.79 71.86,-17.72 72.91,-17.69 73.94,-17.7 74.96,-17.77 75.96,-17.88 76.95,-18.05 77.92,-18.28 78.88,-18.57 79.82,-18.91 80.75,-19.32 81.66,-19.78 82.56,-20.28 83.45,-20.83 84.33,-21.41 85.2,-22.02 86.07,-22.65 86.94,-23.28 87.8,-23.92 88.67,-24.55 89.54,-25.15 90.42,-25.74 91.31,-26.28 92.21,-26.79 93.12,-27.25 94.05,-27.65 94.99,-28 95.95,-28.28 " class="primitive"/>
  </g>
  <g transform="translate(47.24,99.02)">
    <path fill="none" d="M-97.24,23.48 L-96.26,23.25 -95.27,23.08 -94.27,22.97 -93.25,22.91 -92.22,22.89 -91.17,22.92 -90.12,22.99 -89.06,23.08 -88,23.19 -86.93,23.31 -85.86,23.42 -84.8,23.53 -83.74,23.63 -82.69,23.69 -81.64,23.72 -80.61,23.71 -79.59,23.65 -78.59,23.53 -77.6,23.36 -76.62,23.13 -75.67,22.84 -74.72,22.5 -73.8,22.09 -72.88,21.64 -71.98,21.13 -71.09,20.58 -70.22,20 -69.34,19.39 -68.48,18.77 -67.61,18.13 -66.75,17.49 -65.88,16.87 -65.01,16.26 -64.13,15.67 -63.24,15.13 -62.34,14.62 -61.43,14.17 -60.5,13.76 -59.56,13.41 -58.6,13.13 -57.63,12.9 -56.64,12.73 -55.63,12.61 -54.61,12.55 -53.58,12.54 -52.54,12.57 -51.48,12.63 -50.42,12.72 -49.36,12.83 -48.29,12.95 -47.23,13.07 -46.16,13.18 -45.1,13.27 -44.05,13.34 -43.01,13.37 -41.97,13.35 -40.96,13.29 -39.95,13.18 -38.96,13.01 -37.99,12.78 -37.03,12.49 -36.09,12.14 -35.16,11.74 -34.25,11.28 -33.35,10.78 -32.46,10.23 -31.58,9.65 -30.71,9.04 -29.84,8.41 -28.97,7.78 -28.11,7.14 -27.24,6.51 -26.37,5.9 -25.49,5.32 -24.6,4.77 -23.7,4.27 -22.79,3.81 -21.86,3.41 -20.92,3.06 -19.96,2.77 -18.99,2.54 -18,2.37 -16.99,2.26 -15.98,2.2 -14.94,2.19 -13.9,2.22 -12.85,2.28 -11.79,2.37 -10.72,2.48 -9.66,2.6 -8.59,2.72 -7.52,2.83 -6.46,2.92 -5.41,2.98 -4.37,3.01 -3.34,3 -2.32,2.94 -1.31,2.83 -0.32,2.66 0.65,2.43 1.61,2.14 2.55,1.79 3.48,1.39 4.39,0.93 5.29,0.43 6.18,-0.12 7.06,-0.7 7.93,-1.31 8.8,-1.94 9.66,-2.58 10.53,-3.21 11.39,-3.84 12.27,-4.45 13.15,-5.03 14.03,-5.58 14.93,-6.08 15.85,-6.54 16.77,-6.94 17.72,-7.29 18.67,-7.58 19.65,-7.81 20.64,-7.98 21.64,-8.09 22.66,-8.15 23.69,-8.17 24.74,-8.14 25.79,-8.07 26.85,-7.98 27.91,-7.87 28.98,-7.75 30.05,-7.63 31.11,-7.52 32.17,-7.43 33.23,-7.37 34.27,-7.34 35.3,-7.35 36.32,-7.41 37.32,-7.53 38.31,-7.7 39.29,-7.93 40.25,-8.21 41.19,-8.56 42.11,-8.97 43.03,-9.42 43.93,-9.93 44.82,-10.47 45.7,-11.06 46.57,-11.67 47.43,-12.29 48.3,-12.93 49.16,-13.57 50.03,-14.19 50.9,-14.8 51.78,-15.38 52.67,-15.93 53.57,-16.44 54.48,-16.89 55.41,-17.3 56.35,-17.64 57.31,-17.93 58.29,-18.16 59.28,-18.33 60.28,-18.45 61.3,-18.51 62.33,-18.52 63.37,-18.49 64.43,-18.43 65.49,-18.33 66.55,-18.22 67.62,-18.11 68.69,-17.99 69.75,-17.88 70.81,-17.79 71.86,-17.72 72.91,-17.69 73.94,-17.7 74.96,-17.77 75.96,-17.88 76.95,-18.05 77.92,-18.28 78.88,-18.57 79.82,-18.91 80.75,-19.32 81.66,-19.78 82.56,-20.28 83.45,-20.83 84.33,-21.41 85.2,-22.02 86.07,-22.65 86.94,-23.28 87.8,-23.92 88.67,-24.55 89.54,-25.15 90.42,-25.74 91.31,-26.28 92.21,-26.79 93.12,-27.25 94.05,-27.65 94.99,-28 95.95,-28.28 " class="primitive"/>
  </g>
  <g transform="translate(47.24,119.02)">
    <path fill="none" d="M-97.24,23.48 L-96.26,23.25 -95.27,23.08 -94.27,22.97 -93.25,22.91 -92.22,22.89 -91.17,22.92 -90.12,22.99 -89.06,23.08 -88,23.19 -86.93,23.31 -85.86,23.42 -84.8,23.53 -83.74,23.63 -82.69,23.69 -81.64,23.72 -80.61,23.71 -79.59,23.65 -78.59,23.53 -77.6,23.36 -76.62,23.13 -75.67,22.84 -74.72,22.5 -73.8,22.09 -72.88,21.64 -71.98,21.13 -71.09,20.58 -70.22,20 -69.34,19.39 -68.48,18.77 -67.61,18.13 -66.75,17.49 -65.88,16.87 -65.01,16.26 -64.13,15.67 -63.24,15.13 -62.34,14.62 -61.43,14.17 -60.5,13.76 -59.56,13.41 -58.6,13.13 -57.63,12.9 -56.64,12.73 -55.63,12.61 -54.61,12.55 -53.58,12.54 -52.54,12.57 -51.48,12.63 -50.42,12.72 -49.36,12.83 -48.29,12.95 -47.23,13.07 -46.16,13.18 -45.1,13.27 -44.05,13.34 -43.01,13.37 -41.97,13.35 -40.96,13.29 -39.95,13.18 -38.96,13.01 -37.99,12.78 -37.03,12.49 -36.09,12.14 -35.16,11.74 -34.25,11.28 -33.35,10.78 -32.46,10.23 -31.58,9.65 -30.71,9.04 -29.84,8.41 -28.97,7.78 -28.11,7.14 -27.24,6.51 -26.37,5.9 -25.49,5.32 -24.6,4.77 -23.7,4.27 -22.79,3.81 -21.86,3.41 -20.92,3.06 -19.96,2.77 -18.99,2.54 -18,2.37 -16.99,2.26 -15.98,2.2 -14.94,2.19 -13.9,2.22 -12.85,2.28 -11.79,2.37 -10.72,2.48 -9.66,2.6 -8.59,2.72 -7.52,2.83 -6.46,2.92 -5.41,2.98 -4.37,3.01 -3.34,3 -2.32,2.94 -1.31,2.83 -0.32,2.66 0.65,2.43 1.61,2.14 2.55,1.79 3.48,1.39 4.39,0.93 5.29,0.43 6.18,-0.12 7.06,-0.7 7.93,-1.31 8.8,-1.94 9.66,-2.58 10.53,-3.21 11.39,-3.84 12.27,-4.45 13.15,-5.03 14.03,-5.58 14.93,-6.08 15.85,-6.54 16.77,-6.94 17.72,-7.29 18.67,-7.58 19.65,-7.81 20.64,-7.98 21.64,-8.09 22.66,-8.15 23.69,-8.17 24.74,-8.14 25.79,-8.07 26.85,-7.98 27.91,-7.87 28.98,-7.75 30.05,-7.63 31.11,-7.52 32.17,-7.43 33.23,-7.37 34.27,-7.34 35.3,-7.35 36.32,-7.41 37.32,-7.53 38.31,-7.7 39.29,-7.93 40.25,-8.21 41.19,-8.56 42.11,-8.97 43.03,-9.42 43.93,-9.93 44.82,-10.47 45.7,-11.06 46.57,-11.67 47.43,-12.29 48.3,-12.93 49.16,-13.57 50.03,-14.19 50.9,-14.8 51.78,-15.38 52.67,-15.93 53.57,-16.44 54.48,-16.89 55.41,-17.3 56.35,-17.64 57.31,-17.93 58.29,-18.16 59.28,-18.33 60.28,-18.45 61.3,-18.51 62.33,-18.52 63.37,-18.49 64.43,-18.43 65.49,-18.33 66.55,-18.22 67.62,-18.11 68.69,-17.99 69.75,-17.88 70.81,-17.79 71.86,-17.72 72.91,-17.69 73.94,-17.7 74.96,-17.77 75.96,-17.88 76.95,-18.05 77.92,-18.28 78.88,-18.57 79.82,-18.91 80.75,-19.32 81.66,-19.78 82.56,-20.28 83.45,-20.83 84.33,-21.41 85.2,-22.02 86.07,-22.65 86.94,-23.28 87.8,-23.92 88.67,-24.55 89.54,-25.15 90.42,-25.74 91.31,-26.28 92.21,-26.79 93.12,-27.25 94.05,-27.65 94.99,-28 95.95,-28.28 " class="primitive"/>
  </g>
</g>
<g fill="#F5F5DC" id="img-c512f12b-11">
  <g transform="translate(50,90)">
    <path d="M-50,-10 L50,-10 50,10 -50,10  z" class="primitive"/>
  </g>
</g>
</svg>
